<svg width="225" height="161" viewBox="0 0 225 161" fill="none" xmlns="http://www.w3.org/2000/svg">
<path d="M44.7262 135.73C44.6121 136.015 44.4411 136.129 44.2131 136.072C43.9851 136.015 43.928 135.844 44.0421 135.559C45.1252 132.709 45.67 129.713 45.67 126.577C45.67 124.012 45.3152 121.459 44.5995 118.926C43.8837 116.392 42.9019 114.036 41.6477 111.869C39.7664 108.392 37.3974 105.643 34.547 103.616C31.6966 101.595 28.8145 100.582 25.9071 100.582C17.8119 100.582 13.7643 104.718 13.7643 112.984C13.7643 119.654 15.1009 126.001 17.7866 132.012C20.466 138.03 23.9878 142.863 28.3458 146.505C32.7101 150.153 37.3088 151.978 42.1545 151.978C44.4918 151.978 46.9875 151.591 49.6352 150.825C52.2893 150.052 54.6393 148.703 56.6916 146.765C56.9766 146.48 57.192 146.41 57.3313 146.549C57.4707 146.695 57.4327 146.904 57.2046 147.189C53.5561 151.579 49.4642 154.93 44.9352 157.235C40.3999 159.547 35.5732 160.7 30.4424 160.7C24.9696 160.7 19.9086 159.446 15.2655 156.937C10.6162 154.429 6.91067 150.863 4.14894 146.245C1.38087 141.628 0 136.326 0 130.34C0 124.354 1.52655 118.951 4.57333 113.966C7.62011 108.981 11.712 105.047 16.8428 102.165C21.9735 99.2894 27.535 97.8452 33.5209 97.8452C37.3404 97.8452 41.0016 98.333 44.5108 99.3021C48.02 100.271 50.8514 101.525 53.0177 103.065C55.184 104.604 56.2672 106.118 56.2672 107.6C56.2672 107.828 56.2102 108.113 56.0961 108.455L44.7198 135.737L44.7262 135.73Z" fill="white"/>
<path d="M128.579 159.034C128.547 159.294 128.364 159.421 128.022 159.421C125.285 159.25 123.429 159.161 122.46 159.161H105.871C104.788 159.161 102.963 159.25 100.398 159.421C99.9989 159.421 99.7835 159.294 99.7582 159.034C99.7265 158.775 99.9165 158.648 100.316 158.648C102.197 158.591 103.704 157.691 104.851 155.956C105.991 154.22 106.561 151.439 106.561 147.62V127.439C106.561 126.242 106.13 125.874 105.275 126.324C98.4343 129.688 91.3083 131.683 83.8972 132.31C83.0991 132.367 82.7 133.026 82.7 134.28V147.62C82.7 151.439 83.2828 154.22 84.4546 155.956C85.6201 157.698 87.1213 158.591 88.9456 158.648C89.3446 158.648 89.5283 158.775 89.503 159.034C89.4713 159.294 89.2876 159.421 88.9456 159.421C86.2092 159.25 84.3532 159.161 83.3841 159.161H66.7947C65.7115 159.161 63.8873 159.25 61.3219 159.421C60.9799 159.421 60.7962 159.294 60.7645 159.034C60.7328 158.775 60.9228 158.648 61.3219 158.648C63.1462 158.591 64.6284 157.691 65.7686 155.956C66.9087 154.22 67.4788 151.439 67.4788 147.62V110.85C67.4788 107.03 66.9087 104.249 65.7686 102.514C64.6284 100.778 63.1462 99.8786 61.3219 99.8216C60.9228 99.8216 60.7201 99.7076 60.7201 99.4796C60.7201 99.3656 60.7772 99.2642 60.8912 99.1819C61.0052 99.0932 61.1509 99.0552 61.3219 99.0552C63.8873 99.2262 65.7115 99.3149 66.7947 99.3149H83.3841C84.3532 99.3149 86.2092 99.2262 88.9456 99.0552C89.2876 99.0552 89.4713 99.1819 89.503 99.4416C89.5347 99.7013 89.3446 99.828 88.9456 99.828C87.1213 99.885 85.6264 100.784 84.4546 102.52C83.2828 104.262 82.7 107.036 82.7 110.856V130.182C82.7 130.695 82.7887 131.068 82.9597 131.297C83.1307 131.525 83.4411 131.613 83.9035 131.556C87.324 131.328 90.8585 130.701 94.5071 129.675C98.1556 128.649 101.658 127.312 105.028 125.653C106.054 125.14 106.567 124.399 106.567 123.429V110.856C106.567 107.036 105.997 104.256 104.857 102.52C103.717 100.784 102.203 99.885 100.322 99.828C99.9799 99.828 99.8088 99.7139 99.8088 99.4859C99.8088 99.2009 100.012 99.0552 100.411 99.0552C102.976 99.2262 104.8 99.3149 105.883 99.3149H122.473C123.442 99.3149 125.298 99.2262 128.034 99.0552C128.376 99.0552 128.56 99.1819 128.592 99.4416C128.623 99.7013 128.433 99.828 128.034 99.828C126.21 99.885 124.715 100.784 123.543 102.52C122.371 104.262 121.789 107.036 121.789 110.856V147.626C121.789 151.446 122.371 154.227 123.543 155.962C124.709 157.704 126.21 158.597 128.034 158.654C128.433 158.654 128.617 158.781 128.592 159.041L128.579 159.034Z" fill="white"/>
<path d="M138.536 101.222C137.396 99.4861 135.914 98.5866 134.09 98.5296C133.691 98.5296 133.488 98.4156 133.488 98.1876C133.488 98.0736 133.545 97.9722 133.659 97.8899C133.773 97.8012 133.919 97.7632 134.09 97.7632C136.655 97.9342 138.479 98.0229 139.563 98.0229H156.152C157.121 98.0229 158.977 97.9342 161.713 97.7632C162.056 97.7632 162.239 97.8899 162.271 98.1496C162.296 98.4093 162.113 98.536 161.713 98.536C159.889 98.593 158.394 99.4924 157.222 101.228C156.051 102.97 155.468 105.744 155.468 109.564V146.334C155.468 150.154 156.051 152.935 157.222 154.67C158.388 156.412 159.889 157.305 161.713 157.362C162.113 157.362 162.296 157.489 162.271 157.749C162.239 158.008 162.056 158.135 161.713 158.135C158.977 157.964 157.121 157.875 156.152 157.875H139.563C138.479 157.875 136.655 157.964 134.09 158.135C133.748 158.135 133.564 158.008 133.532 157.749C133.501 157.489 133.691 157.362 134.09 157.362C135.914 157.305 137.396 156.406 138.536 154.67C139.677 152.935 140.247 150.154 140.247 146.334V109.564C140.247 105.744 139.677 102.964 138.536 101.228V101.222Z" fill="white"/>
<path d="M212.254 134.445C212.14 134.73 211.969 134.844 211.741 134.787C211.513 134.73 211.456 134.559 211.57 134.274C212.654 131.423 213.198 128.427 213.198 125.292C213.198 122.726 212.844 120.174 212.128 117.64C211.412 115.106 210.43 112.75 209.176 110.584C207.295 107.106 204.926 104.357 202.075 102.33C199.225 100.309 196.343 99.296 193.435 99.296C185.34 99.296 181.293 103.432 181.293 111.698C181.293 118.368 182.629 124.715 185.315 130.727C187.994 136.744 191.516 141.577 195.874 145.219C200.238 148.868 204.837 150.692 209.683 150.692C212.02 150.692 214.516 150.306 217.164 149.539C219.818 148.766 222.168 147.417 224.22 145.479C224.505 145.194 224.72 145.124 224.86 145.264C224.999 145.409 224.961 145.618 224.733 145.903C221.084 150.293 216.993 153.644 212.464 155.95C207.928 158.262 203.101 159.414 197.971 159.414C192.498 159.414 187.437 158.16 182.794 155.652C178.145 153.143 174.439 149.577 171.677 144.96C168.909 140.342 167.528 135.04 167.528 129.054C167.528 123.068 169.055 117.665 172.102 112.68C175.148 107.695 179.24 103.762 184.371 100.88C189.502 98.0038 195.063 96.5596 201.049 96.5596C204.869 96.5596 208.53 97.0473 212.039 98.0165C215.548 98.9856 218.38 100.24 220.546 101.779C222.712 103.318 223.795 104.832 223.795 106.314C223.795 106.542 223.738 106.827 223.624 107.169L212.248 134.451L212.254 134.445Z" fill="white"/>
<path d="M11.6017 84.5246C11.2597 84.5246 11.076 84.3979 11.0443 84.1382C11.0127 83.8785 11.2027 83.7518 11.6017 83.7518C13.426 83.6948 14.9082 82.7954 16.0484 81.0598C17.1885 79.3242 17.7586 76.5434 17.7586 72.7239V35.9536C17.7586 32.134 17.1885 29.3533 16.0484 27.6177C14.9082 25.8821 13.426 24.9826 11.6017 24.9256C11.2027 24.9256 11 24.8116 11 24.5836C11 24.4696 11.057 24.3682 11.171 24.2859C11.285 24.1972 11.4307 24.1592 11.6017 24.1592C14.1671 24.3302 15.9914 24.4189 17.0745 24.4189H33.6639C34.8041 24.4189 36.7424 24.3302 39.4788 24.1592C39.8778 24.1592 40.0805 24.3049 40.0805 24.5899C40.0805 24.8179 39.8778 24.932 39.4788 24.932C37.5405 24.989 35.9696 25.8884 34.7724 27.624C33.5753 29.3659 32.9735 32.1403 32.9735 35.9599V79.4889C32.9735 81.0851 33.1889 82.1556 33.6133 82.694C34.044 83.2388 34.8548 83.5048 36.052 83.5048C39.3014 83.5048 42.4686 82.6053 45.547 80.8127C48.6254 79.0138 51.3302 76.6068 53.6738 73.5854C57.3224 68.7967 59.6851 62.8425 60.7745 55.7101C60.8886 55.368 61.0342 55.197 61.2053 55.197C61.3193 55.197 61.4206 55.254 61.503 55.368C61.5917 55.4821 61.6043 55.6277 61.5473 55.7988C61.0913 59.6753 60.7365 63.8369 60.4768 68.2836C60.2171 72.7302 60.0904 76.7208 60.0904 80.2553V83.7645C60.0904 84.3916 60.0018 84.835 59.8307 85.0884C59.6597 85.3417 59.3177 85.4748 58.8046 85.4748C58.3485 85.4748 57.5187 85.3861 56.3216 85.215C50.2217 84.588 44.5209 84.2712 39.2191 84.2712H17.0745C15.9914 84.2712 14.1671 84.3599 11.6017 84.5309V84.5246Z" fill="white"/>
<path d="M80.4424 82.7763C76.4518 80.7557 73.386 77.8483 71.2514 74.0541C69.1104 70.2662 68.0463 65.8005 68.0463 60.6698V35.9535C68.0463 32.134 67.5015 29.3532 66.4184 27.6177C65.3352 25.8821 63.91 24.9826 62.1427 24.9256C61.8007 24.9256 61.6423 24.7989 61.674 24.5392C61.6993 24.2795 61.8577 24.1528 62.1427 24.1528C64.7081 24.3238 66.4437 24.4125 67.3622 24.4125H84.1226C85.4338 24.4125 87.6318 24.3238 90.7102 24.1528C91.1663 24.1528 91.3943 24.2985 91.3943 24.5835C91.3943 24.8116 91.1663 24.9256 90.7102 24.9256C88.4869 24.9826 86.688 25.8821 85.3198 27.6177C83.9516 29.3596 83.2675 32.134 83.2675 35.9535V61.4362C83.2675 67.1941 84.794 71.7547 87.8408 75.1182C90.8876 78.4817 95.0935 80.1666 100.452 80.1666C103.702 80.1666 106.578 79.3432 109.092 77.6836C111.601 76.0304 113.539 73.693 114.907 70.6716C116.275 67.6501 116.959 64.2043 116.959 60.3214L116.871 35.9472C116.871 32.1276 116.174 29.3469 114.774 27.6113C113.374 25.8757 111.569 24.9763 109.346 24.9193C108.89 24.9193 108.661 24.8052 108.661 24.5772C108.661 24.2922 108.89 24.1465 109.346 24.1465C112.595 24.3175 114.818 24.4062 116.016 24.4062H118.157C119.012 24.4062 120.469 24.3175 122.521 24.1465C122.806 24.1465 122.964 24.2732 122.99 24.5329C123.015 24.7926 122.888 24.9193 122.603 24.9193C121.121 24.9763 119.924 25.8757 119.012 27.6113C118.1 29.3532 117.643 32.1276 117.643 35.9472V60.0617C117.643 68.0999 115.604 74.4025 111.531 78.9631C107.452 83.5238 101.795 85.8041 94.5551 85.8041C89.1393 85.8041 84.433 84.7906 80.4424 82.77V82.7763Z" fill="white"/>
<path d="M190.202 24.5327C190.228 24.7924 190.044 24.9191 189.645 24.9191C187.821 24.9761 186.338 25.8756 185.198 27.6111C184.058 29.3531 183.488 32.1275 183.488 35.947V84.7778C183.488 85.1768 183.317 85.3795 182.975 85.3795C182.633 85.3795 182.316 85.2085 182.031 84.8665L137.907 32.1021C137.679 31.8741 137.476 31.7601 137.305 31.7601C137.02 31.7601 136.874 31.9628 136.874 32.3618V72.8124C136.874 76.6319 137.457 79.4127 138.629 81.1483C139.794 82.8902 141.296 83.7833 143.12 83.8403C143.519 83.8403 143.703 83.967 143.677 84.2267C143.646 84.4864 143.462 84.6131 143.12 84.6131C141.752 84.4421 139.896 84.3534 137.558 84.3534H135.246C132.909 84.3534 131.053 84.4421 129.685 84.6131C129.343 84.6131 129.159 84.4864 129.127 84.2267C129.096 83.967 129.286 83.8403 129.685 83.8403C131.509 83.7833 133.004 82.8838 134.176 81.1483C135.341 79.4127 135.93 76.6319 135.93 72.8124V29.6254C134.391 27.9722 133.067 26.775 131.953 26.0339C130.838 25.2928 129.717 24.8938 128.576 24.8367C128.177 24.8367 127.994 24.7101 128.019 24.4504C128.044 24.1906 128.234 24.064 128.576 24.064C129.888 24.235 131.712 24.3237 134.049 24.3237L148.333 24.4123C149.929 24.4123 151.126 24.8684 151.924 25.7805L181.429 62.2975C181.714 62.5826 181.968 62.7282 182.202 62.7282C182.437 62.7282 182.544 62.5319 182.544 62.1265L182.456 35.9597C182.456 32.1401 181.885 29.3594 180.745 27.6238C179.605 25.8882 178.123 24.9888 176.299 24.9318C175.9 24.9318 175.697 24.8177 175.697 24.5897C175.697 24.4757 175.754 24.3743 175.868 24.292C175.982 24.2033 176.128 24.1653 176.299 24.1653C178.864 24.3363 180.688 24.425 181.771 24.425H184.166C185.249 24.425 187.073 24.3363 189.639 24.1653C189.981 24.1653 190.164 24.292 190.196 24.5517L190.202 24.5327Z" fill="white"/>
<path d="M136.235 0V5.7515H208.667V81.0531H214.418V5.7515V2.87575V0H136.235Z" fill="white"/>
</svg>
