<svg width="49" height="20" viewBox="0 0 49 20" fill="none" xmlns="http://www.w3.org/2000/svg">
<path d="M8.95323 2.5785C8.37894 3.25404 7.46009 3.78687 6.54123 3.71075C6.42637 2.79734 6.87623 1.82683 7.40266 1.2274C7.97694 0.532826 8.98194 0.038059 9.79551 0C9.89122 0.951475 9.51794 1.88392 8.95323 2.5785ZM9.78594 3.89153C8.45551 3.81541 7.31651 4.6432 6.6848 4.6432C6.04352 4.6432 5.0768 3.92959 4.02395 3.94862C2.65524 3.96765 1.38224 4.73834 0.683527 5.96575C-0.752184 8.42055 0.310243 12.0552 1.6981 14.0533C2.37767 15.0428 3.19124 16.1275 4.26323 16.0894C5.2778 16.0514 5.6798 15.4329 6.90494 15.4329C8.13966 15.4329 8.4938 16.0894 9.56579 16.0704C10.6761 16.0514 11.3748 15.0809 12.0544 14.0913C12.8296 12.9686 13.1455 11.8744 13.1646 11.8173C13.1455 11.7983 11.0206 10.9895 11.0015 8.55376C10.9824 6.5176 12.6765 5.5471 12.7531 5.49001C11.7959 4.08183 10.3028 3.92959 9.78594 3.89153ZM17.4718 1.13225V15.9657H19.7881V10.8944H22.9945C25.9233 10.8944 27.9812 8.89629 27.9812 6.00381C27.9812 3.11132 25.9616 1.13225 23.0711 1.13225H17.4718ZM19.7881 3.07326H22.4585C24.4685 3.07326 25.617 4.13892 25.617 6.01332C25.617 7.88773 24.4685 8.96289 22.4489 8.96289H19.7881V3.07326ZM32.2117 16.0799C33.6666 16.0799 35.0162 15.3473 35.6287 14.1865H35.6766V15.9657H37.8206V8.5823C37.8206 6.44148 36.0977 5.06185 33.4465 5.06185C30.9866 5.06185 29.168 6.46051 29.101 8.38249H31.1876C31.3599 7.46908 32.2118 6.86965 33.3795 6.86965C34.796 6.86965 35.5905 7.52617 35.5905 8.73454V9.55281L32.6999 9.72407C30.0103 9.88582 28.5555 10.98 28.5555 12.883C28.5555 14.8049 30.0582 16.0799 32.2117 16.0799ZM32.8339 14.3197C31.5992 14.3197 30.8143 13.7298 30.8143 12.8259C30.8143 11.8934 31.5705 11.3511 33.0157 11.2655L35.5905 11.1037V11.941C35.5905 13.3302 34.4036 14.3197 32.8339 14.3197ZM40.6824 20C42.9413 20 44.0037 19.1437 44.9322 16.5461L49 5.20457H46.6454L43.9176 13.9677H43.8697L41.1419 5.20457H38.7203L42.6446 16.0038L42.434 16.6603C42.0799 17.7736 41.5056 18.2017 40.4814 18.2017C40.2996 18.2017 39.9454 18.1827 39.8019 18.1637V19.9429C39.9359 19.981 40.5102 20 40.6824 20Z" fill="black"/>
</svg>
