<svg width="65" height="67" viewBox="0 0 65 67" fill="none" xmlns="http://www.w3.org/2000/svg">
<path d="M27.9686 35.8406C32.4944 31.4744 38.8837 24.8548 43.4095 20.4886C44.4744 19.5027 45.5393 18.3759 47.0035 17.8126C48.3346 17.2492 50.0651 17.2492 51.13 18.0942C52.0617 18.7985 52.4611 20.0661 52.5942 21.3337C52.9935 25.6998 49.5326 29.3618 46.338 32.1786C40.6142 37.3899 36.2609 42.6786 30.5372 47.8898C29.6054 48.7349 28.5405 49.5799 27.3425 49.5799C26.4107 49.5799 25.612 48.8757 24.8134 48.3123C20.0214 44.087 15.7224 37.9532 12.6608 32.3195C11.9953 31.1927 11.4628 29.7843 11.8622 28.5167C12.1284 27.6716 12.7939 26.9674 13.5926 26.6857C16.3879 25.4181 19.4495 27.6716 21.8455 29.7843C24.1084 31.7561 27.9686 35.8406 27.9686 35.8406Z" stroke="black" stroke-width="2"/>
</svg>
