<svg width="24" height="21" viewBox="0 0 24 21" fill="none" xmlns="http://www.w3.org/2000/svg">
<path d="M20.5067 2.61036C19.996 2.09937 19.3896 1.69401 18.7221 1.41744C18.0546 1.14088 17.3392 0.998535 16.6167 0.998535C15.8943 0.998535 15.1788 1.14088 14.5114 1.41744C13.8439 1.69401 13.2375 2.09937 12.7267 2.61036L11.6667 3.67036L10.6067 2.61036C9.57505 1.57867 8.17578 0.99907 6.71674 0.99907C5.25771 0.99907 3.85844 1.57867 2.82674 2.61036C1.79505 3.64205 1.21545 5.04133 1.21545 6.50036C1.21545 7.95939 1.79505 9.35867 2.82674 10.3904L3.88674 11.4504L11.6667 19.2304L19.4467 11.4504L20.5067 10.3904C21.0177 9.87961 21.4231 9.27318 21.6997 8.60572C21.9762 7.93826 22.1186 7.22285 22.1186 6.50036C22.1186 5.77787 21.9762 5.06246 21.6997 4.39501C21.4231 3.72755 21.0177 3.12112 20.5067 2.61036V2.61036Z" stroke="#CECECE" stroke-width="1.99832" stroke-linecap="round" stroke-linejoin="round"/>
</svg>
