<svg width="25" height="24" viewBox="0 0 25 24" fill="none" xmlns="http://www.w3.org/2000/svg">
<path d="M12.4999 16C14.709 16 16.4999 14.2091 16.4999 12C16.4999 9.79085 14.709 7.99999 12.4999 7.99999C10.2908 7.99999 8.49991 9.79085 8.49991 12C8.49991 14.2091 10.2908 16 12.4999 16Z" stroke="#CAC8BD" stroke-width="1.99832" stroke-linecap="round" stroke-linejoin="round"/>
<path d="M16.4999 8.0001V13.0001C16.4999 13.7958 16.816 14.5588 17.3786 15.1214C17.9412 15.684 18.7043 16.0001 19.4999 16.0001C20.2956 16.0001 21.0586 15.684 21.6212 15.1214C22.1838 14.5588 22.4999 13.7958 22.4999 13.0001V12.0001C22.4998 9.74313 21.7361 7.55258 20.3332 5.78464C18.9302 4.01669 16.9705 2.77533 14.7726 2.2624C12.5746 1.74947 10.2679 1.99515 8.22727 2.95947C6.18668 3.9238 4.53232 5.55006 3.53318 7.57383C2.53404 9.59759 2.24888 11.8998 2.72409 14.1062C3.19929 16.3126 4.40689 18.2933 6.15055 19.7264C7.8942 21.1594 10.0714 21.9605 12.328 21.9993C14.5846 22.0381 16.788 21.3123 18.5799 19.9401" stroke="#CAC8BD" stroke-width="1.99832" stroke-linecap="round" stroke-linejoin="round"/>
</svg>
