<svg width="50" height="37" viewBox="0 0 50 37" fill="none" xmlns="http://www.w3.org/2000/svg">
<g clip-path="url(#clip0_694_4700)">
<path d="M49.5 27H0.5V36.2H49.5V27Z" fill="#0872B9"/>
<path d="M49.5 0.800049H0.5V10H49.5V0.800049Z" fill="#0872B9"/>
<path d="M49.5 10.8H0.5V26.3H49.5V10.8Z" fill="#0872B9"/>
<path d="M46.5999 4.00015H42.5L42.7999 4.50015H46.9L48.2999 5.40015C48.2999 5.40015 48.6 5.70015 48.4 5.90015L46.7999 7.10015H39L38.4 6.30015V8.50015H28.7V4.20015H35.7999V6.40015H31.7V7.20015H36.5H36.7V4.30015H39.4L41 5.90015H45.5999V5.10015H41L38.7999 2.90015H45.9L46.5999 4.00015Z" fill="white"/>
<path d="M40.7 7.7002H39.7V8.6002H40.7V7.7002Z" fill="white"/>
<path d="M43.1001 7.7002H42.1001V8.6002H43.1001V7.7002Z" fill="white"/>
<path d="M7.7999 3.40015H6.3999V4.70015H7.7999V3.40015Z" fill="white"/>
<path d="M9.59995 3.40015H8.19995V4.70015H9.59995V3.40015Z" fill="white"/>
<path d="M21.1 3.40015H19.7V4.70015H21.1V3.40015Z" fill="white"/>
<path d="M26.4 5.50024H22.8V6.80024H26.4V5.50024Z" fill="white"/>
<path d="M19 5.00015H21.5V7.90015H2.9L1.5 6.10015L3.9 2.90015H5.8L4.4 6.10015H16.7V5.10015H18.4V6.10015H19V5.00015Z" fill="white"/>
<path d="M11.4001 34.4002H9.8001V31.7002C9.8001 31.1002 9.8001 30.8002 9.7001 30.6002C9.6001 30.4002 9.5001 30.3002 9.4001 30.2002C9.3001 30.1002 9.1001 30.1002 8.9001 30.1002C8.6001 30.1002 8.4001 30.2002 8.2001 30.3002C8.0001 30.4002 7.8001 30.6002 7.8001 30.8002C7.7001 31.0002 7.6001 31.4002 7.6001 32.0002V34.4002H6.1001V29.1002H7.5001V29.9002C8.0001 29.3002 8.7001 29.0002 9.4001 29.0002C9.7001 29.0002 10.0001 29.1002 10.3001 29.2002C10.6001 29.3002 10.8001 29.5002 10.9001 29.6002C11.0001 29.8002 11.1001 30.0002 11.2001 30.2002C11.3001 30.4002 11.3001 30.7002 11.3001 31.1002V34.4002H11.4001Z" fill="white"/>
<path d="M25.8 32.7002L27.3 32.9002C27.1 33.4002 26.8 33.8002 26.4 34.1002C26 34.4002 25.4 34.5002 24.8 34.5002C23.8 34.5002 23 34.2002 22.6 33.6002C22.2 33.1002 22 32.5002 22 31.8002C22 30.9002 22.3 30.2002 22.8 29.7002C23.3 29.2002 23.9 29.0002 24.7 29.0002C25.6 29.0002 26.2 29.3002 26.7 29.8002C27.2 30.3002 27.4 31.1002 27.4 32.2002H23.6C23.6 32.6002 23.7 32.9002 24 33.2002C24.2 33.4002 24.5 33.5002 24.9 33.5002C25.1 33.5002 25.3 33.4002 25.5 33.3002C25.6 33.2002 25.7 33.0002 25.8 32.7002ZM25.9 31.3002C25.9 30.9002 25.8 30.6002 25.6 30.4002C25.4 30.2002 25.1 30.1002 24.8 30.1002C24.5 30.1002 24.2 30.2002 24 30.4002C23.8 30.6002 23.7 30.9002 23.7 31.3002H25.9Z" fill="white"/>
<path d="M43.8 29.1001V30.2001H42.8V32.3001C42.8 32.7001 42.8 33.0001 42.8 33.1001C42.8 33.2001 42.9 33.2001 42.9 33.3001C43 33.3001 43.1 33.4001 43.2 33.4001C43.3 33.4001 43.5 33.4001 43.8 33.3001L43.9 34.4001C43.5 34.5001 43.1 34.6001 42.7 34.6001C42.4 34.6001 42.2 34.6001 42 34.5001C41.8 34.4001 41.6 34.3001 41.5 34.2001C41.4 34.1001 41.3 33.9001 41.3 33.7001C41.3 33.5001 41.2 33.2001 41.2 32.7001V30.4001H40.5V29.3001H41.2V28.2001L42.7 27.4001V29.3001H43.8V29.1001Z" fill="white"/>
<path d="M18.7001 12H7.1001V24.4H18.7001V12Z" fill="#FBED1F"/>
<path d="M18.3 17.5001L26.9 12.1001H42.2001L33.8 17.5001L42.9001 24.2001H26.5L18.5 18.0001L18.3 17.5001Z" fill="#FBED1F"/>
</g>
<defs>
<clipPath id="clip0_694_4700">
<rect width="50" height="37" fill="white"/>
</clipPath>
</defs>
</svg>
