<svg width="28" height="20" viewBox="0 0 28 20" fill="none" xmlns="http://www.w3.org/2000/svg">
<rect width="28" height="20" rx="2" fill="white"/>
<mask id="mask0_214_79830" style="mask-type:luminance" maskUnits="userSpaceOnUse" x="0" y="0" width="28" height="20">
<rect width="28" height="20" rx="2" fill="white"/>
</mask>
<g mask="url(#mask0_214_79830)">
<rect width="28" height="20" fill="#E4E4E4"/>
<path fill-rule="evenodd" clip-rule="evenodd" d="M14 17.3334C18.0501 17.3334 21.3334 14.0502 21.3334 10.0001C21.3334 5.94999 18.0501 2.66675 14 2.66675C9.94993 2.66675 6.66669 5.94999 6.66669 10.0001C6.66669 14.0502 9.94993 17.3334 14 17.3334ZM19.9634 10.6667C19.7159 12.9059 18.2362 14.7737 16.2173 15.5771C16.8674 14.253 17.2472 12.5281 17.3203 10.6667H19.9634ZM15.9857 10.6667C15.8883 12.9158 15.3011 14.9035 14.3855 15.9879C14.2581 15.996 14.1295 16.0001 14 16.0001C13.8705 16.0001 13.742 15.996 13.6145 15.9879C12.699 14.9035 12.1117 12.9158 12.0144 10.6667H15.9857ZM10.6797 10.6667C10.7529 12.5281 11.1326 14.253 11.7827 15.5771C9.76388 14.7737 8.28417 12.9059 8.03664 10.6667H10.6797ZM12.0144 9.33341H15.9857C15.8883 7.08437 15.3011 5.09665 14.3855 4.01227C14.2581 4.00418 14.1295 4.00008 14 4.00008C13.8705 4.00008 13.742 4.00418 13.6145 4.01227C12.6989 5.09665 12.1117 7.08437 12.0144 9.33341ZM11.7827 4.4231C11.1326 5.74713 10.7529 7.47205 10.6797 9.33341H8.03664C8.28417 7.09425 9.76388 5.22645 11.7827 4.4231ZM19.9634 9.33341H17.3203C17.2472 7.47205 16.8674 5.74713 16.2173 4.4231C18.2362 5.22645 19.7159 7.09425 19.9634 9.33341Z" fill="#A0A0A0"/>
</g>
</svg>
