<svg width="28" height="24" viewBox="0 0 28 24" fill="none" xmlns="http://www.w3.org/2000/svg">
<g clip-path="url(#clip0_214_80276)">
<path fill-rule="evenodd" clip-rule="evenodd" d="M10.4571 18.1483H17.282V5.82886H10.4571V18.1483Z" fill="#FF5F00"/>
<path fill-rule="evenodd" clip-rule="evenodd" d="M10.8905 11.9887C10.8905 9.48934 12.0555 7.26337 13.8697 5.82894C12.5428 4.77973 10.8689 4.15381 9.04934 4.15381C4.74186 4.15381 1.25012 7.66164 1.25012 11.9887C1.25012 16.3157 4.74186 19.8235 9.04934 19.8235C10.8689 19.8235 12.5428 19.1976 13.8697 18.1484C12.0555 16.7137 10.8905 14.488 10.8905 11.9887Z" fill="#EB001B"/>
<path fill-rule="evenodd" clip-rule="evenodd" d="M26.2456 16.8434V16.5394H26.1665L26.0757 16.7485L25.9847 16.5394H25.9057V16.8434H25.9614V16.614L26.0467 16.8119H26.1046L26.1899 16.6136V16.8434H26.2456ZM25.7449 16.8434V16.5912H25.8463V16.5398H25.5885V16.5912H25.6897V16.8434H25.7449ZM26.4891 11.9884C26.4891 16.3154 22.9972 19.8233 18.6899 19.8233C16.8704 19.8233 15.1962 19.1973 13.8696 18.1481C15.6837 16.7137 16.8487 14.4877 16.8487 11.9884C16.8487 9.48931 15.6837 7.26335 13.8696 5.8287C15.1962 4.77948 16.8704 4.15356 18.6899 4.15356C22.9972 4.15356 26.4891 7.6614 26.4891 11.9884Z" fill="#F79E1B"/>
</g>
<defs>
<clipPath id="clip0_214_80276">
<rect width="25.5" height="15.6923" fill="white" transform="translate(1.25 4.15381)"/>
</clipPath>
</defs>
</svg>
