<svg width="114" height="156" viewBox="0 0 114 156" fill="none" xmlns="http://www.w3.org/2000/svg">
<path d="M57 0L64.2561 29.4843C65.5502 34.7429 66.1973 37.3723 67.5717 39.4927C68.7871 41.3678 70.406 42.9476 72.3102 44.1168C74.4636 45.439 77.108 46.0216 82.3967 47.1869L114 54.15L82.3967 61.1131C77.108 62.2784 74.4636 62.861 72.3102 64.1832C70.406 65.3524 68.7871 66.9322 67.5717 68.8073C66.1973 70.9277 65.5502 73.5571 64.2561 78.8157L57 108.3L49.7439 78.8157C48.4498 73.5571 47.8027 70.9277 46.4283 68.8073C45.2129 66.9322 43.594 65.3524 41.6898 64.1832C39.5364 62.861 36.892 62.2784 31.6033 61.1131L0 54.15L31.6033 47.1869C36.892 46.0216 39.5364 45.439 41.6898 44.1168C43.594 42.9476 45.2129 41.3678 46.4283 39.4927C47.8027 37.3723 48.4498 34.7429 49.7439 29.4843L57 0Z" fill="#CAC8BD"/>
<path d="M56.6777 85.5L60.0476 99.3485C61.3283 104.612 61.9687 107.243 63.338 109.368C64.5488 111.246 66.1641 112.83 68.0658 114.004C70.2164 115.332 72.86 115.921 78.1472 117.099L93.0152 120.412L78.1472 123.726C72.86 124.904 70.2164 125.493 68.0658 126.82C66.1641 127.995 64.5488 129.579 63.338 131.457C61.9687 133.582 61.3283 136.213 60.0476 141.477L56.6777 155.325L53.3079 141.477C52.0271 136.213 51.3867 133.582 50.0174 131.457C48.8066 129.579 47.1913 127.995 45.2896 126.82C43.139 125.493 40.4954 124.904 35.2082 123.726L20.3402 120.412L35.2082 117.099C40.4954 115.921 43.139 115.332 45.2896 114.004C47.1913 112.83 48.8066 111.246 50.0174 109.368C51.3867 107.243 52.0271 104.612 53.3079 99.3485L56.6777 85.5Z" fill="#CAC8BD"/>
</svg>
