<?xml version="1.0" encoding="utf-8"?><!-- Uploaded to: SVG Repo, www.svgrepo.com, Generator: SVG Repo Mixer Tools -->
<svg version="1.1" id="Uploaded to svgrepo.com" xmlns="http://www.w3.org/2000/svg" xmlns:xlink="http://www.w3.org/1999/xlink" 
	 width="800px" height="800px" viewBox="0 0 32 32" xml:space="preserve">
<style type="text/css">
	.feather_een{fill:#111918;}
	.st0{fill:#0B1719;}
</style>
<path class="feather_een" d="M16.707,14.293l2.769-2.769c0.825-0.825,0.836-2.185,0.025-3.023l-0.002-0.002
	C19.085,8.085,18.543,7.878,18,7.878s-1.085,0.207-1.499,0.621L16,9l-0.501-0.501C15.085,8.085,14.543,7.878,14,7.878
	s-1.085,0.207-1.499,0.621l-0.002,0.002c-0.811,0.838-0.8,2.198,0.025,3.023l2.769,2.769C15.683,14.683,16.317,14.683,16.707,14.293
	z M13.208,9.206C13.42,8.995,13.701,8.878,14,8.878s0.58,0.117,0.792,0.328L16,10.414l1.208-1.208
	C17.42,8.995,17.701,8.878,18,8.878s0.58,0.117,0.794,0.33C19.005,9.42,19.122,9.701,19.122,10c0,0.299-0.117,0.58-0.328,0.792
	L16,13.586l-2.794-2.794c-0.212-0.212-0.328-0.493-0.328-0.792C12.878,9.701,12.995,9.42,13.208,9.206z M28,6h-1V5
	c0-1.657-1.343-3-3-3H8C6.343,2,5,3.343,5,5v1H4C2.343,6,1,7.343,1,9v18c0,1.657,1.343,3,3,3h24c1.657,0,3-1.343,3-3V9
	C31,7.343,29.657,6,28,6z M28,7c0.37,0,0.712,0.108,1.01,0.283L27,9.293V7H28z M8,3h16c1.103,0,2,0.897,2,2v5.293l-10,10l-10-10V5
	C6,3.897,6.897,3,8,3z M4,7h1v2.293l-2.01-2.01C3.288,7.108,3.63,7,4,7z M2,27V9c0-0.37,0.108-0.712,0.283-1.01L12.293,18
	L2.283,28.01C2.108,27.712,2,27.37,2,27z M28,29H4c-0.37,0-0.712-0.108-1.01-0.283L13,18.707L15.293,21
	c0.391,0.391,1.024,0.391,1.414,0L19,18.707l10.01,10.01C28.712,28.892,28.37,29,28,29z M30,27c0,0.37-0.108,0.712-0.283,1.01
	L19.707,18l10.01-10.01C29.892,8.288,30,8.63,30,9V27z"/>
</svg>