<svg width="304" height="350" viewBox="0 0 304 350" fill="none" xmlns="http://www.w3.org/2000/svg">
<path d="M31.2187 49.5C31.2141 52.6881 31.8389 55.8457 33.0574 58.7917C34.2759 61.7377 36.0641 64.4142 38.3194 66.6675C40.5754 68.9238 43.2539 70.7134 46.2018 71.934C49.1498 73.1546 52.3093 73.7823 55.5 73.7812C58.9341 73.7897 62.3305 73.0648 65.4619 71.655L75.6128 73.1565C76.1168 73.2388 76.6332 73.1968 77.1173 73.0342C77.6014 72.8715 78.0384 72.5931 78.3905 72.2232C78.7426 71.8533 78.999 71.403 79.1375 70.9115C79.2761 70.42 79.2925 69.9021 79.1854 69.4028L77.7758 59.1049C79.1134 56.0803 79.7968 52.8072 79.7813 49.5C79.7856 46.312 79.1606 43.1545 77.9422 40.2085C76.7237 37.2625 74.9357 34.586 72.6806 32.3325C70.4247 30.0761 67.7462 28.2864 64.7983 27.0658C61.8503 25.8452 58.6907 25.2175 55.5 25.2188C49.0566 25.2192 42.8771 27.7779 38.3194 32.3325C36.0653 34.5867 34.2779 37.2633 33.0595 40.2091C31.841 43.155 31.2155 46.3122 31.2187 49.5Z" stroke="#3F3D56" stroke-width="1.5" stroke-linecap="round" stroke-linejoin="round"/>
<path d="M53.2076 52.0772C53.222 52.5856 53.4341 53.0684 53.7988 53.4229C54.1635 53.7775 54.6521 53.9758 55.1608 53.9758C55.6694 53.9758 56.158 53.7775 56.5227 53.4229C56.8874 53.0684 57.0995 52.5856 57.1139 52.0772V39.5569C57.0995 39.0484 56.8874 38.5656 56.5227 38.2111C56.158 37.8565 55.6694 37.6582 55.1608 37.6582C54.6521 37.6582 54.1635 37.8565 53.7988 38.2111C53.4341 38.5656 53.222 39.0484 53.2076 39.5569V52.0772ZM53.2076 57.5358C53.2076 58.61 54.0866 59.4889 55.1608 59.4889C56.235 59.4889 57.1139 58.61 57.1139 57.5358C57.1139 56.4615 56.235 55.5826 55.1608 55.5826C54.6433 55.5843 54.1475 55.7906 53.7815 56.1565C53.4156 56.5224 53.2093 57.0183 53.2076 57.5358Z" fill="#F8312F"/>
<path d="M283.818 69.3891H282.211V25.4378C282.211 22.0973 281.553 18.7894 280.272 15.7032C278.992 12.6169 277.115 9.81265 274.75 7.45053C272.384 5.08841 269.575 3.21468 266.484 1.93631C263.393 0.657946 260.08 -1.23848e-05 256.735 1.74835e-10H163.477C160.131 -1.18464e-05 156.818 0.657946 153.727 1.93631C150.636 3.21468 147.828 5.08841 145.462 7.45053C143.096 9.81266 141.22 12.6169 139.939 15.7032C138.659 18.7894 138 22.0973 138 25.4378V266.558C138 269.898 138.659 273.206 139.939 276.292C141.22 279.379 143.096 282.183 145.462 284.545C147.828 286.907 150.636 288.781 153.727 290.059C156.818 291.338 160.131 291.996 163.477 291.996H256.735C260.081 291.996 263.393 291.338 266.484 290.059C269.575 288.781 272.384 286.907 274.75 284.545C277.115 282.183 278.992 279.379 280.272 276.292C281.553 273.206 282.211 269.898 282.211 266.558V100.674H283.818L283.818 69.3891Z" fill="#3F3D56"/>
<path d="M277.048 23.6723V267.565C277.047 272.667 275.022 277.559 271.417 281.167C267.813 284.775 262.924 286.803 257.826 286.805H163.115C158.015 286.806 153.124 284.779 149.517 281.171C145.91 277.563 143.882 272.669 143.881 267.565V23.6723C143.882 18.5687 145.91 13.6746 149.516 10.0666C153.123 6.45853 158.015 4.43197 163.114 4.43262H174.603C174.039 5.82096 173.824 7.32672 173.978 8.81755C174.132 10.3084 174.649 11.7386 175.484 12.9826C176.319 14.2266 177.447 15.2462 178.768 15.9518C180.09 16.6574 181.564 17.0274 183.061 17.0293H237.058C238.555 17.0274 240.03 16.6574 241.351 15.9518C242.672 15.2462 243.8 14.2266 244.635 12.9826C245.471 11.7386 245.988 10.3084 246.141 8.81755C246.295 7.32672 246.08 5.82096 245.516 4.43262H257.823C262.921 4.43349 267.81 6.46029 271.415 10.0675C275.02 13.6746 277.046 18.5669 277.048 23.6686V23.6723Z" fill="white"/>
<path d="M303.206 294.856H0.793555C0.355009 294.856 0 294.665 0 294.428C0 294.192 0.355418 294 0.793555 294H303.206C303.645 294 304 294.192 304 294.428C304 294.665 303.645 294.856 303.206 294.856Z" fill="#383434"/>
<path d="M300.071 278.033C298.779 278.488 297.391 278.602 296.043 278.364C294.694 278.126 293.429 277.545 292.37 276.676C289.673 274.41 288.827 270.678 288.139 267.222L286.104 257L290.365 259.936C293.429 262.047 296.562 264.227 298.684 267.285C300.806 270.343 301.731 274.518 300.027 277.827" fill="#4CA621"/>
<path d="M299.413 291.121C299.949 287.21 300.501 283.25 300.124 279.299C299.79 275.789 298.72 272.361 296.542 269.55C295.386 268.061 293.979 266.786 292.384 265.78C291.969 265.518 291.586 266.177 292 266.439C294.759 268.183 296.892 270.76 298.093 273.797C299.42 277.174 299.633 280.855 299.404 284.442C299.265 286.611 298.972 288.766 298.677 290.918C298.654 291.015 298.669 291.118 298.718 291.205C298.767 291.292 298.848 291.357 298.943 291.387C299.041 291.413 299.145 291.4 299.232 291.35C299.32 291.3 299.384 291.218 299.412 291.121H299.413Z" fill="#A0616A"/>
<path d="M295.552 284.847C294.998 285.69 294.237 286.375 293.341 286.838C292.445 287.301 291.445 287.525 290.438 287.489C287.849 287.366 285.69 285.557 283.747 283.842L278 278.762L281.804 278.58C284.539 278.449 287.345 278.327 289.952 279.171C292.559 280.015 294.96 282.047 295.437 284.744" fill="#4CA621"/>
<path d="M300.928 293.368C298.348 288.797 295.352 283.716 290.001 282.092C288.514 281.642 286.954 281.481 285.405 281.617C284.917 281.658 285.039 282.412 285.528 282.37C288.123 282.154 290.714 282.84 292.863 284.312C294.931 285.72 296.541 287.679 297.904 289.756C298.739 291.026 299.486 292.354 300.234 293.679C300.471 294.102 301.17 293.796 300.928 293.368Z" fill="#A0616A"/>
<rect x="152.081" y="67" width="115.676" height="160" rx="10" fill="#FFE1E1"/>
<path d="M208.354 158.536C208.354 159.213 208.085 159.862 207.606 160.341C207.127 160.82 206.478 161.089 205.801 161.089C205.124 161.089 204.474 160.82 203.995 160.341C203.517 159.862 203.248 159.213 203.248 158.536C203.248 157.859 203.517 157.209 203.995 156.731C204.474 156.252 205.124 155.983 205.801 155.983C206.478 155.983 207.127 156.252 207.606 156.731C208.085 157.209 208.354 157.859 208.354 158.536ZM207.715 137.473C207.715 136.965 207.514 136.478 207.155 136.119C206.796 135.76 206.308 135.558 205.801 135.558C205.293 135.558 204.806 135.76 204.447 136.119C204.088 136.478 203.886 136.965 203.886 137.473V148.962C203.886 149.47 204.088 149.957 204.447 150.316C204.806 150.675 205.293 150.877 205.801 150.877C206.308 150.877 206.796 150.675 207.155 150.316C207.514 149.957 207.715 149.47 207.715 148.962V137.473Z" fill="#F05E5E"/>
<path d="M200.276 122.14C202.734 117.889 208.867 117.889 211.325 122.14L234.219 161.722C236.677 165.978 233.606 171.301 228.691 171.301H182.91C177.993 171.301 174.924 165.978 177.383 161.722L200.276 122.14ZM208.012 124.057C207.786 123.67 207.464 123.349 207.076 123.126C206.688 122.903 206.248 122.786 205.801 122.786C205.353 122.786 204.913 122.903 204.525 123.126C204.137 123.349 203.815 123.67 203.59 124.057L180.699 163.639C180.476 164.028 180.359 164.468 180.359 164.916C180.36 165.364 180.478 165.804 180.702 166.192C180.925 166.58 181.247 166.902 181.635 167.127C182.022 167.351 182.462 167.47 182.91 167.471H228.691C229.139 167.47 229.578 167.351 229.965 167.127C230.353 166.902 230.674 166.58 230.898 166.192C231.122 165.805 231.24 165.365 231.241 164.918C231.241 164.47 231.125 164.03 230.902 163.642L208.012 124.057Z" fill="#F05E5E"/>
<g clip-path="url(#clip0_2_249)">
<path d="M174.509 111.517C174.626 111.84 174.609 112.196 174.463 112.507C174.317 112.817 174.053 113.057 173.73 113.174C173.407 113.29 173.051 113.273 172.74 113.127C172.43 112.981 172.19 112.717 172.074 112.394C171.957 112.071 171.974 111.715 172.12 111.405C172.266 111.094 172.53 110.854 172.853 110.738C173.176 110.622 173.532 110.638 173.843 110.784C174.153 110.931 174.393 111.194 174.509 111.517ZM170.586 101.579C170.499 101.337 170.319 101.139 170.086 101.029C169.853 100.92 169.586 100.907 169.344 100.995C169.101 101.082 168.904 101.262 168.794 101.495C168.684 101.728 168.672 101.995 168.759 102.237L170.733 107.718C170.82 107.96 171 108.158 171.233 108.267C171.466 108.377 171.733 108.389 171.976 108.302C172.218 108.215 172.415 108.035 172.525 107.802C172.635 107.569 172.647 107.302 172.56 107.06L170.586 101.579Z" fill="#F05E5E"/>
<path d="M164.402 95.5424C164.845 93.0922 167.77 92.0385 169.674 93.6439L187.396 108.593C189.3 110.201 188.749 113.268 186.405 114.112L164.565 121.978C162.219 122.823 159.841 120.811 160.282 118.358L164.402 95.5424ZM168.422 95.128C168.248 94.9821 168.039 94.8844 167.816 94.8447C167.592 94.8049 167.362 94.8245 167.149 94.9014C166.935 94.9782 166.746 95.1098 166.599 95.2829C166.452 95.456 166.354 95.6645 166.313 95.8877L162.194 118.703C162.154 118.927 162.174 119.157 162.251 119.371C162.328 119.584 162.46 119.774 162.634 119.92C162.807 120.067 163.016 120.166 163.239 120.206C163.463 120.247 163.693 120.228 163.907 120.151L185.747 112.286C185.96 112.208 186.149 112.076 186.295 111.902C186.441 111.728 186.539 111.52 186.579 111.296C186.62 111.073 186.6 110.843 186.524 110.629C186.447 110.416 186.316 110.226 186.143 110.079L168.422 95.128Z" fill="#F05E5E"/>
</g>
<g clip-path="url(#clip1_2_249)">
<path d="M246.445 130.839C246.251 131.122 245.952 131.316 245.614 131.379C245.277 131.442 244.928 131.368 244.645 131.174C244.362 130.98 244.167 130.681 244.104 130.344C244.042 130.006 244.115 129.658 244.309 129.375C244.504 129.091 244.802 128.897 245.14 128.834C245.477 128.771 245.826 128.845 246.109 129.039C246.392 129.233 246.587 129.532 246.65 129.869C246.713 130.207 246.639 130.556 246.445 130.839ZM252.218 121.848C252.363 121.636 252.419 121.374 252.371 121.121C252.324 120.868 252.178 120.644 251.966 120.498C251.754 120.353 251.492 120.297 251.239 120.344C250.986 120.392 250.762 120.537 250.616 120.75L247.322 125.554C247.176 125.766 247.121 126.028 247.168 126.281C247.215 126.534 247.361 126.758 247.573 126.904C247.786 127.049 248.047 127.105 248.3 127.058C248.553 127.01 248.778 126.865 248.923 126.652L252.218 121.848Z" fill="#F05E5E"/>
<path d="M253.504 113.303C255.751 112.23 258.315 113.989 258.124 116.471L256.347 139.588C256.155 142.073 253.344 143.418 251.289 142.009L232.144 128.881C230.088 127.471 230.331 124.365 232.58 123.29L253.504 113.303ZM256.189 116.323C256.205 116.096 256.163 115.87 256.064 115.665C255.966 115.461 255.816 115.285 255.629 115.157C255.441 115.029 255.224 114.952 254.998 114.934C254.772 114.916 254.545 114.957 254.34 115.055L233.417 125.043C233.212 125.141 233.037 125.292 232.909 125.479C232.781 125.667 232.704 125.884 232.686 126.111C232.668 126.337 232.711 126.564 232.808 126.769C232.906 126.974 233.056 127.15 233.243 127.279L252.387 140.407C252.574 140.535 252.792 140.611 253.019 140.628C253.245 140.645 253.472 140.603 253.676 140.505C253.881 140.407 254.056 140.257 254.185 140.07C254.314 139.883 254.391 139.666 254.41 139.44L256.189 116.323Z" fill="#F05E5E"/>
</g>
<path fill-rule="evenodd" clip-rule="evenodd" d="M210 56C207.551 55.9996 205.145 56.6414 203.022 57.8613C200.899 59.0813 199.133 60.8369 197.901 62.9527C196.668 65.0685 196.012 67.4706 195.998 69.9192C195.984 72.3678 196.612 74.7774 197.82 76.9072C198.637 75.846 199.686 74.9868 200.888 74.396C202.09 73.8052 203.411 73.4986 204.75 73.5H215.25C216.589 73.4986 217.91 73.8052 219.112 74.396C220.314 74.9868 221.363 75.846 222.18 76.9072C223.388 74.7774 224.016 72.3678 224.002 69.9192C223.988 67.4706 223.332 65.0685 222.099 62.9527C220.867 60.8369 219.101 59.0813 216.978 57.8613C214.855 56.6414 212.449 55.9996 210 56ZM223.9 80.633C226.24 77.5827 227.506 73.8443 227.5 70C227.5 60.3348 219.665 52.5 210 52.5C200.335 52.5 192.5 60.3348 192.5 70C192.494 73.8444 193.76 77.5828 196.1 80.633L196.091 80.6645L196.712 81.3872C198.354 83.3061 200.391 84.8463 202.685 85.9016C204.979 86.9569 207.475 87.5022 210 87.5C213.548 87.5065 217.013 86.4288 219.931 84.4113C221.175 83.5517 222.304 82.5353 223.288 81.3872L223.909 80.6645L223.9 80.633ZM210 59.5C208.608 59.5 207.272 60.0531 206.288 61.0377C205.303 62.0223 204.75 63.3576 204.75 64.75C204.75 66.1424 205.303 67.4777 206.288 68.4623C207.272 69.4469 208.608 70 210 70C211.392 70 212.728 69.4469 213.712 68.4623C214.697 67.4777 215.25 66.1424 215.25 64.75C215.25 63.3576 214.697 62.0223 213.712 61.0377C212.728 60.0531 211.392 59.5 210 59.5Z" fill="black"/>
<rect x="162.5" y="197.5" width="100" height="23" rx="4.5" stroke="#F05E5E"/>
<path d="M194.415 214H193.307L196.511 205.273H197.602L200.807 214H199.699L197.091 206.653H197.023L194.415 214ZM194.824 210.591H199.29V211.528H194.824V210.591ZM202.166 214V205.273H203.223V213.062H207.28V214H202.166ZM208.916 214V205.273H214.183V206.21H209.973V209.159H213.911V210.097H209.973V213.062H214.251V214H208.916ZM216.088 214V205.273H219.037C219.719 205.273 220.278 205.389 220.716 205.622C221.153 205.852 221.477 206.169 221.688 206.572C221.898 206.976 222.003 207.435 222.003 207.949C222.003 208.463 221.898 208.919 221.688 209.317C221.477 209.714 221.155 210.027 220.72 210.254C220.286 210.479 219.73 210.591 219.054 210.591H216.668V209.636H219.02C219.486 209.636 219.861 209.568 220.145 209.432C220.432 209.295 220.639 209.102 220.767 208.852C220.898 208.599 220.963 208.298 220.963 207.949C220.963 207.599 220.898 207.294 220.767 207.033C220.636 206.771 220.428 206.57 220.141 206.428C219.854 206.283 219.474 206.21 219.003 206.21H217.145V214H216.088ZM220.196 210.08L222.344 214H221.116L219.003 210.08H220.196ZM223.287 206.21V205.273H229.832V206.21H227.088V214H226.031V206.21H223.287Z" fill="#EC3737"/>
<path d="M100.112 98.5764C93.1739 98.5764 87.5496 92.9522 87.5496 86.0143C87.5496 79.0765 93.1739 73.4523 100.112 73.4523C107.05 73.4523 112.674 79.0765 112.674 86.0143C112.674 92.9522 107.05 98.5764 100.112 98.5764Z" fill="#FFB6B6"/>
<path d="M89.2333 191.509C89.6999 190.95 90.0383 190.296 90.2247 189.592C90.4111 188.889 90.4409 188.153 90.3121 187.436C90.1833 186.72 89.899 186.041 89.4792 185.446C89.0594 184.851 88.5143 184.356 87.8823 183.995L91.1415 166.603L82.6644 170.165L80.8691 186.134C80.3326 187.236 80.219 188.496 80.5498 189.676C80.8805 190.856 81.6327 191.874 82.6637 192.537C83.6947 193.199 84.9329 193.461 86.1437 193.271C87.3546 193.082 88.4539 192.455 89.2333 191.509Z" fill="#FFB6B6"/>
<path d="M165.561 90.6359C165.654 91.3578 165.588 92.0914 165.368 92.785C165.147 93.4787 164.777 94.1155 164.283 94.6506C163.79 95.1857 163.185 95.6061 162.511 95.8821C161.838 96.1582 161.112 96.2832 160.385 96.2484L153.792 112.668L148.554 105.111L155.618 90.6767C155.758 89.4591 156.339 88.335 157.252 87.5173C158.165 86.6996 159.346 86.2452 160.571 86.2402C161.797 86.2352 162.982 86.6798 163.901 87.49C164.821 88.3002 165.411 89.4195 165.561 90.6359Z" fill="#FFB6B6"/>
<path d="M91.2261 288.115H97.2962L100.184 264.701L91.2246 264.701L91.2261 288.115Z" fill="#FFB6B6"/>
<path d="M89.6778 294L109.252 293.999V293.752C109.251 291.731 108.449 289.793 107.02 288.365C105.591 286.936 103.653 286.133 101.633 286.133H101.632L89.6774 286.134L89.6778 294Z" fill="#2F2E41"/>
<path d="M111.091 287.923L116.878 286.09L112.565 262.896L104.023 265.6L111.091 287.923Z" fill="#FFB6B6"/>
<path d="M111.391 294L130.051 288.092L129.977 287.856C129.367 285.93 128.017 284.325 126.223 283.394C124.43 282.463 122.34 282.282 120.414 282.892L109.016 286.501L111.391 294Z" fill="#2F2E41"/>
<path d="M118.28 173.678C118.28 173.678 127.287 187.82 124.105 200.443C120.922 213.065 117.456 237.328 117.456 237.328L100.199 278.398L87.3346 277.873L100.11 229.45L99.6044 197.074C99.6044 197.074 90.7253 181.601 92.4545 176.784C94.1836 171.968 118.28 173.678 118.28 173.678Z" fill="#2F2E41"/>
<path d="M88.8547 178.734C88.8547 178.734 87.7466 192.764 91.2127 198.706C94.6787 204.648 98.3715 227.263 98.3715 227.263L104.263 272.494L116.465 268.523L106.06 217.847L97.8816 177.986L88.8547 178.734Z" fill="#2F2E41"/>
<path d="M84.5281 110.816L94.0488 104.272L108.537 103.851L113.583 108.798L121.282 112.73L121.995 176.784C121.995 176.784 98.9384 187.836 86.5341 182.501L80.5669 132.603C78.0911 122.7 84.5281 110.816 84.5281 110.816Z" fill="#3F3D56"/>
<path d="M119.348 129.847H144.744L161.429 101.127L150.58 96.8299L141.392 113.174L128.093 111.97L119.79 111.569C118.459 111.504 117.131 111.732 115.897 112.234C114.663 112.737 113.555 113.503 112.648 114.479C111.741 115.456 111.059 116.618 110.649 117.885C110.238 119.153 110.11 120.495 110.272 121.817C110.546 124.032 111.62 126.07 113.291 127.549C114.963 129.027 117.117 129.845 119.348 129.847Z" fill="#3F3D56"/>
<path d="M84.9755 83.1562C85.3612 80.3984 87.2291 77.7797 89.8854 76.9442C90.9407 73.8799 93.7357 71.6239 96.8238 70.6405C99.6835 69.7287 102.765 69.792 105.585 70.8204C108.405 71.8489 110.804 73.7844 112.405 76.3232C112.641 76.6948 113.368 77.6076 113.347 78.051C113.322 78.6142 112.46 79.1957 112.027 79.5507C110.955 80.3797 109.798 81.0937 108.576 81.681C104.059 84.0229 105.562 87.7033 105.624 91.8739C105.653 93.9006 104.977 95.6311 103.249 96.7888C100.754 98.4595 97.1851 97.7948 94.4713 97.1243C91.3919 96.3633 88.8318 93.6582 87.0757 91.0499C85.5203 88.74 84.5896 85.9141 84.9755 83.1562Z" fill="#2F2E41"/>
<path d="M84.8881 127.171L80 180.787L95.7048 179.945L84.8881 127.171Z" fill="#3F3D56"/>
<path d="M167.506 89V83.1818H168.736V87.9858H171.23V89H167.506ZM173.994 89.0852C173.552 89.0852 173.171 88.9915 172.849 88.804C172.529 88.6146 172.281 88.3513 172.107 88.0142C171.933 87.6752 171.846 87.2822 171.846 86.8352C171.846 86.3845 171.933 85.9905 172.107 85.6534C172.281 85.3144 172.529 85.0511 172.849 84.8636C173.171 84.6742 173.552 84.5795 173.994 84.5795C174.435 84.5795 174.816 84.6742 175.136 84.8636C175.458 85.0511 175.706 85.3144 175.88 85.6534C176.054 85.9905 176.141 86.3845 176.141 86.8352C176.141 87.2822 176.054 87.6752 175.88 88.0142C175.706 88.3513 175.458 88.6146 175.136 88.804C174.816 88.9915 174.435 89.0852 173.994 89.0852ZM173.999 88.1477C174.2 88.1477 174.368 88.0909 174.502 87.9773C174.637 87.8617 174.738 87.7045 174.806 87.5057C174.876 87.3068 174.911 87.0805 174.911 86.8267C174.911 86.5729 174.876 86.3466 174.806 86.1477C174.738 85.9489 174.637 85.7917 174.502 85.6761C174.368 85.5606 174.2 85.5028 173.999 85.5028C173.797 85.5028 173.626 85.5606 173.488 85.6761C173.352 85.7917 173.248 85.9489 173.178 86.1477C173.11 86.3466 173.076 86.5729 173.076 86.8267C173.076 87.0805 173.11 87.3068 173.178 87.5057C173.248 87.7045 173.352 87.8617 173.488 87.9773C173.626 88.0909 173.797 88.1477 173.999 88.1477ZM178.894 90.7273C178.502 90.7273 178.166 90.6733 177.886 90.5653C177.607 90.4593 177.386 90.3144 177.221 90.1307C177.056 89.947 176.949 89.7405 176.9 89.5114L178.019 89.3608C178.053 89.4479 178.107 89.5294 178.181 89.6051C178.255 89.6809 178.353 89.7415 178.474 89.7869C178.597 89.8343 178.746 89.858 178.923 89.858C179.186 89.858 179.403 89.7936 179.573 89.6648C179.746 89.5379 179.832 89.3248 179.832 89.0256V88.2273H179.781C179.728 88.3485 179.648 88.4631 179.542 88.571C179.436 88.679 179.299 88.767 179.133 88.8352C178.966 88.9034 178.767 88.9375 178.536 88.9375C178.209 88.9375 177.91 88.8617 177.641 88.7102C177.374 88.5568 177.161 88.3229 177.002 88.0085C176.845 87.6922 176.766 87.2926 176.766 86.8097C176.766 86.3153 176.847 85.9025 177.008 85.571C177.169 85.2396 177.383 84.9915 177.65 84.8267C177.919 84.6619 178.213 84.5795 178.533 84.5795C178.778 84.5795 178.982 84.6212 179.147 84.7045C179.312 84.786 179.444 84.8883 179.545 85.0114C179.647 85.1326 179.726 85.2519 179.781 85.3693H179.826V84.6364H181.028V89.0426C181.028 89.4138 180.937 89.7244 180.755 89.9744C180.573 90.2244 180.321 90.4119 179.999 90.5369C179.679 90.6638 179.311 90.7273 178.894 90.7273ZM178.92 88.0284C179.115 88.0284 179.28 87.9801 179.414 87.8835C179.55 87.785 179.655 87.6449 179.727 87.4631C179.8 87.2794 179.837 87.0597 179.837 86.804C179.837 86.5483 179.801 86.3267 179.729 86.1392C179.657 85.9498 179.553 85.803 179.417 85.6989C179.281 85.5947 179.115 85.5426 178.92 85.5426C178.721 85.5426 178.553 85.5966 178.417 85.7045C178.281 85.8106 178.177 85.9583 178.107 86.1477C178.037 86.3371 178.002 86.5559 178.002 86.804C178.002 87.0559 178.037 87.2737 178.107 87.4574C178.179 87.6392 178.282 87.7803 178.417 87.8807C178.553 87.9792 178.721 88.0284 178.92 88.0284ZM181.991 89V84.6364H183.201V89H181.991ZM182.599 84.0739C182.419 84.0739 182.264 84.0142 182.136 83.8949C182.009 83.7737 181.945 83.6288 181.945 83.4602C181.945 83.2936 182.009 83.1506 182.136 83.0312C182.264 82.91 182.419 82.8494 182.599 82.8494C182.779 82.8494 182.932 82.91 183.059 83.0312C183.188 83.1506 183.252 83.2936 183.252 83.4602C183.252 83.6288 183.188 83.7737 183.059 83.8949C182.932 84.0142 182.779 84.0739 182.599 84.0739ZM185.381 86.4773V89H184.17V84.6364H185.324V85.4062H185.375C185.472 85.1525 185.634 84.9517 185.861 84.804C186.088 84.6544 186.364 84.5795 186.688 84.5795C186.991 84.5795 187.255 84.6458 187.48 84.7784C187.705 84.911 187.881 85.1004 188.006 85.3466C188.131 85.5909 188.193 85.8826 188.193 86.2216V89H186.983V86.4375C186.985 86.1705 186.917 85.9621 186.778 85.8125C186.64 85.661 186.45 85.5852 186.207 85.5852C186.045 85.5852 185.901 85.6203 185.776 85.6903C185.652 85.7604 185.556 85.8627 185.486 85.9972C185.418 86.1297 185.383 86.2898 185.381 86.4773Z" fill="black"/>
<path d="M17.7363 320.734C17.1439 320.734 16.8477 320.438 16.8477 319.846V318.041C16.8477 317.521 16.9844 317.07 17.2578 316.688L24.832 306.023C25.1693 305.549 25.5931 305.312 26.1035 305.312H28.1133C28.7148 305.312 29.0156 305.609 29.0156 306.201V317.344H30.6699C31.2624 317.344 31.5586 317.64 31.5586 318.232V319.846C31.5586 320.438 31.2669 320.734 30.6836 320.734H29.0156V324.111C29.0156 324.704 28.7194 325 28.127 325H26.0762C25.4837 325 25.1875 324.704 25.1875 324.111V320.734H17.7363ZM20.6621 317.344H25.1875V312.053C25.1875 311.688 25.2057 311.324 25.2422 310.959H25.1875L20.6621 317.344ZM33.6094 315.279C33.6094 311.588 34.1836 308.967 35.332 307.418C36.4805 305.868 38.2396 305.094 40.6094 305.094C42.9792 305.094 44.7383 305.868 45.8867 307.418C47.0352 308.967 47.6094 311.588 47.6094 315.279C47.6094 318.971 47.0352 321.591 45.8867 323.141C44.7383 324.69 42.9792 325.465 40.6094 325.465C38.2396 325.465 36.4805 324.69 35.332 323.141C34.1836 321.591 33.6094 318.971 33.6094 315.279ZM37.6562 315.279C37.6562 316.965 37.793 318.588 38.0664 320.146C38.349 321.705 39.1966 322.484 40.6094 322.484C42.0221 322.484 42.8652 321.705 43.1387 320.146C43.4212 318.588 43.5625 316.965 43.5625 315.279C43.5625 313.593 43.4212 311.971 43.1387 310.412C42.8652 308.854 42.0221 308.074 40.6094 308.074C39.1966 308.074 38.349 308.854 38.0664 310.412C37.793 311.971 37.6562 313.593 37.6562 315.279ZM51.2871 309.441C51.0501 308.995 51.2096 308.648 51.7656 308.402C52.2943 308.165 52.8457 307.833 53.4199 307.404C53.9941 306.976 54.4635 306.534 54.8281 306.078C55.2383 305.568 55.6302 305.312 56.0039 305.312H58.1777C58.7246 305.312 58.998 305.586 58.998 306.133V324.18C58.998 324.727 58.7246 325 58.1777 325H55.9902C55.4434 325 55.1699 324.727 55.1699 324.18V311.178C55.1699 310.813 55.1882 310.449 55.2246 310.084H55.1699C54.8874 310.439 54.5775 310.745 54.2402 311C53.903 311.255 53.5612 311.456 53.2148 311.602C52.7865 311.784 52.4629 311.665 52.2441 311.246L51.2871 309.441ZM72.9844 316.838V306.146C72.9844 305.645 73.3034 305.395 73.9414 305.395H76.0195C76.6576 305.395 76.9766 305.645 76.9766 306.146V316.701C76.9766 319.162 77.3366 320.702 78.0566 321.322C78.7858 321.933 79.6061 322.238 80.5176 322.238C81.429 322.238 82.2448 321.933 82.9648 321.322C83.694 320.702 84.0586 319.162 84.0586 316.701V306.146C84.0586 305.645 84.3776 305.395 85.0156 305.395H87.0938C87.7318 305.395 88.0508 305.645 88.0508 306.146V316.838C88.0508 320.028 87.3763 322.266 86.0273 323.551C84.6784 324.827 82.8418 325.465 80.5176 325.465C78.1934 325.465 76.3568 324.827 75.0078 323.551C73.6589 322.266 72.9844 320.028 72.9844 316.838ZM93.3828 325C92.7448 325 92.4258 324.658 92.4258 323.975V306.42C92.4258 305.736 92.7448 305.395 93.3828 305.395H95.4062C96.1901 305.395 96.7826 305.714 97.1836 306.352L104.156 317.549H104.252C104.206 317.002 104.184 316.455 104.184 315.908V306.42C104.184 305.736 104.503 305.395 105.141 305.395H107.219C107.857 305.395 108.176 305.736 108.176 306.42V323.975C108.176 324.658 107.857 325 107.219 325H105.332C104.548 325 103.956 324.681 103.555 324.043L96.4453 312.641H96.3496C96.3952 313.188 96.418 313.734 96.418 314.281V323.975C96.418 324.658 96.099 325 95.4609 325H93.3828ZM111.936 325C111.279 325 111.065 324.699 111.293 324.098L117.992 306.502C118.275 305.764 118.703 305.395 119.277 305.395H121.191C121.766 305.395 122.194 305.764 122.477 306.502L129.176 324.098C129.404 324.699 129.189 325 128.533 325H126.359C125.758 325 125.339 324.686 125.102 324.057L123.707 320.379H116.762L115.367 324.057C115.13 324.686 114.711 325 114.109 325H111.936ZM118.033 316.988H122.436L120.754 312.641C120.553 312.13 120.43 311.761 120.385 311.533C120.348 311.296 120.307 310.95 120.262 310.494H120.207C120.161 310.95 120.116 311.296 120.07 311.533C120.034 311.761 119.915 312.13 119.715 312.641L118.033 316.988ZM131.609 316.838V306.146C131.609 305.645 131.928 305.395 132.566 305.395H134.645C135.283 305.395 135.602 305.645 135.602 306.146V316.701C135.602 319.162 135.962 320.702 136.682 321.322C137.411 321.933 138.231 322.238 139.143 322.238C140.054 322.238 140.87 321.933 141.59 321.322C142.319 320.702 142.684 319.162 142.684 316.701V306.146C142.684 305.645 143.003 305.395 143.641 305.395H145.719C146.357 305.395 146.676 305.645 146.676 306.146V316.838C146.676 320.028 146.001 322.266 144.652 323.551C143.303 324.827 141.467 325.465 139.143 325.465C136.818 325.465 134.982 324.827 133.633 323.551C132.284 322.266 131.609 320.028 131.609 316.838ZM150.354 308.895C149.67 308.895 149.328 308.598 149.328 308.006V306.283C149.328 305.691 149.67 305.395 150.354 305.395H164.408C165.092 305.395 165.434 305.691 165.434 306.283V308.006C165.434 308.598 165.092 308.895 164.408 308.895H159.377V324.248C159.377 324.749 159.149 325 158.693 325H156.068C155.613 325 155.385 324.749 155.385 324.248V308.895H150.354ZM169.043 325C168.405 325 168.086 324.658 168.086 323.975V306.42C168.086 305.736 168.405 305.395 169.043 305.395H171.121C171.759 305.395 172.078 305.736 172.078 306.42V313.105H179.434V306.42C179.434 305.736 179.753 305.395 180.391 305.395H182.469C183.107 305.395 183.426 305.736 183.426 306.42V323.975C183.426 324.658 183.107 325 182.469 325H180.391C179.753 325 179.434 324.658 179.434 323.975V316.496H172.078V323.975C172.078 324.658 171.759 325 171.121 325H169.043ZM186.789 315.197C186.789 312.053 187.6 309.555 189.223 307.705C190.845 305.855 193.16 304.93 196.168 304.93C199.176 304.93 201.491 305.855 203.113 307.705C204.736 309.555 205.547 312.053 205.547 315.197C205.547 318.342 204.736 320.839 203.113 322.689C201.491 324.54 199.176 325.465 196.168 325.465C193.16 325.465 190.845 324.54 189.223 322.689C187.6 320.839 186.789 318.342 186.789 315.197ZM191.055 315.197C191.055 317.476 191.46 319.221 192.271 320.434C193.092 321.637 194.391 322.238 196.168 322.238C197.945 322.238 199.24 321.637 200.051 320.434C200.871 319.221 201.281 317.476 201.281 315.197C201.281 312.919 200.871 311.178 200.051 309.975C199.24 308.762 197.945 308.156 196.168 308.156C194.391 308.156 193.092 308.762 192.271 309.975C191.46 311.178 191.055 312.919 191.055 315.197ZM209.867 325C209.229 325 208.91 324.658 208.91 323.975V306.42C208.91 305.736 209.229 305.395 209.867 305.395H216.197C219.014 305.395 221.069 305.832 222.363 306.707C223.658 307.573 224.305 308.986 224.305 310.945C224.305 312.404 223.781 313.566 222.732 314.432C221.684 315.298 220.354 315.872 218.74 316.154V316.182C219.615 316.51 220.276 316.965 220.723 317.549C221.169 318.132 221.534 318.643 221.816 319.08L224.824 323.824C225.326 324.608 225.152 325 224.305 325H221.926C221.424 325 221.014 324.731 220.695 324.193L217.934 319.586C217.633 319.094 217.081 318.556 216.279 317.973C215.486 317.38 214.698 317.084 213.914 317.084H212.902V323.975C212.902 324.658 212.583 325 211.945 325H209.867ZM212.902 313.693H215.35C217.173 313.693 218.467 313.488 219.232 313.078C220.007 312.659 220.395 311.998 220.395 311.096C220.395 310.111 220.021 309.473 219.273 309.182C218.535 308.881 217.446 308.73 216.006 308.73H212.902V313.693ZM229.391 325C228.753 325 228.434 324.658 228.434 323.975V306.42C228.434 305.736 228.753 305.395 229.391 305.395H231.469C232.107 305.395 232.426 305.736 232.426 306.42V323.975C232.426 324.658 232.107 325 231.469 325H229.391ZM236.473 325C235.789 325 235.447 324.704 235.447 324.111V322.99C235.447 322.361 235.68 321.728 236.145 321.09L245.031 308.812V308.717C244.484 308.762 243.938 308.785 243.391 308.785H237.02C236.336 308.785 235.994 308.489 235.994 307.896V306.283C235.994 305.691 236.336 305.395 237.02 305.395H249.488C250.172 305.395 250.514 305.691 250.514 306.283V307.199C250.514 307.682 250.354 308.143 250.035 308.58L240.602 321.582V321.678C241.148 321.632 241.695 321.609 242.242 321.609H249.871C250.555 321.609 250.896 321.906 250.896 322.498V324.111C250.896 324.704 250.555 325 249.871 325H236.473ZM254.875 325C254.237 325 253.918 324.658 253.918 323.975V306.42C253.918 305.736 254.237 305.395 254.875 305.395H266.605C267.289 305.395 267.631 305.691 267.631 306.283V307.896C267.631 308.489 267.289 308.785 266.605 308.785H257.91V313.133H265.881C266.564 313.133 266.906 313.429 266.906 314.021V315.635C266.906 316.227 266.564 316.523 265.881 316.523H257.91V321.609H267.043C267.727 321.609 268.068 321.906 268.068 322.498V324.111C268.068 324.704 267.727 325 267.043 325H254.875ZM272.375 325C271.737 325 271.418 324.658 271.418 323.975V306.42C271.418 305.736 271.737 305.395 272.375 305.395H277.146C281.339 305.395 284.174 306.242 285.65 307.938C287.136 309.633 287.879 312.044 287.879 315.17C287.879 318.296 287.136 320.716 285.65 322.43C284.174 324.143 281.339 325 277.146 325H272.375ZM275.41 321.609H276.887C279.712 321.609 281.54 321.085 282.369 320.037C283.199 318.98 283.613 317.357 283.613 315.17C283.613 312.982 283.199 311.369 282.369 310.33C281.54 309.282 279.712 308.758 276.887 308.758H275.41V321.609Z" fill="#C5AF61"/>
<path d="M55.5742 345C55.3711 345 55.3184 344.871 55.416 344.613L58.334 336.955C58.4238 336.717 58.5527 336.598 58.7207 336.598H59.541C59.709 336.598 59.8379 336.717 59.9277 336.955L62.8457 344.613C62.9434 344.871 62.8906 345 62.6875 345H62.0898C61.8828 345 61.7422 344.904 61.668 344.713L60.9355 342.773H57.3262L56.5938 344.713C56.5195 344.904 56.3789 345 56.1719 345H55.5742ZM57.6953 341.812H60.5664L59.6699 339.469C59.5879 339.25 59.5059 339.008 59.4238 338.742C59.3457 338.477 59.252 338.1 59.1426 337.611H59.1191C59.0098 338.1 58.9141 338.477 58.832 338.742C58.7539 339.008 58.6738 339.25 58.5918 339.469L57.6953 341.812ZM63.2676 341.924C63.2676 341.006 63.4941 340.248 63.9473 339.65C64.4043 339.049 65.1016 338.748 66.0391 338.748C66.6719 338.748 67.1543 338.861 67.4863 339.088C67.8223 339.311 68.0645 339.539 68.2129 339.773C68.2949 339.902 68.2773 340.006 68.1602 340.084L67.791 340.324C67.6738 340.406 67.5566 340.354 67.4395 340.166C67.3262 339.986 67.166 339.832 66.959 339.703C66.7559 339.574 66.4492 339.51 66.0391 339.51C65.5039 339.51 65.0898 339.707 64.7969 340.102C64.5039 340.496 64.3574 341.104 64.3574 341.924C64.3574 342.744 64.5039 343.352 64.7969 343.746C65.0898 344.141 65.5039 344.338 66.0391 344.338C66.4727 344.338 66.8047 344.256 67.0352 344.092C67.2656 343.924 67.4336 343.742 67.5391 343.547C67.6406 343.363 67.7559 343.311 67.8848 343.389L68.2773 343.623C68.3945 343.693 68.4121 343.799 68.3301 343.939C68.2324 344.107 68.0098 344.344 67.6621 344.648C67.3184 344.949 66.7773 345.1 66.0391 345.1C65.1016 345.1 64.4043 344.801 63.9473 344.203C63.4941 343.602 63.2676 342.842 63.2676 341.924ZM69.2793 341.924C69.2793 341.006 69.5059 340.248 69.959 339.65C70.416 339.049 71.1133 338.748 72.0508 338.748C72.6836 338.748 73.166 338.861 73.498 339.088C73.834 339.311 74.0762 339.539 74.2246 339.773C74.3066 339.902 74.2891 340.006 74.1719 340.084L73.8027 340.324C73.6855 340.406 73.5684 340.354 73.4512 340.166C73.3379 339.986 73.1777 339.832 72.9707 339.703C72.7676 339.574 72.4609 339.51 72.0508 339.51C71.5156 339.51 71.1016 339.707 70.8086 340.102C70.5156 340.496 70.3691 341.104 70.3691 341.924C70.3691 342.744 70.5156 343.352 70.8086 343.746C71.1016 344.141 71.5156 344.338 72.0508 344.338C72.4844 344.338 72.8164 344.256 73.0469 344.092C73.2773 343.924 73.4453 343.742 73.5508 343.547C73.6523 343.363 73.7676 343.311 73.8965 343.389L74.2891 343.623C74.4062 343.693 74.4238 343.799 74.3418 343.939C74.2441 344.107 74.0215 344.344 73.6738 344.648C73.3301 344.949 72.7891 345.1 72.0508 345.1C71.1133 345.1 70.416 344.801 69.959 344.203C69.5059 343.602 69.2793 342.842 69.2793 341.924ZM75.291 341.924C75.291 340.955 75.5332 340.184 76.0176 339.609C76.502 339.035 77.1953 338.748 78.0977 338.748C78.8477 338.748 79.4688 339.012 79.9609 339.539C80.457 340.062 80.7051 340.9 80.7051 342.053C80.7051 342.229 80.625 342.316 80.4648 342.316H76.3809C76.4473 343.07 76.6504 343.596 76.9902 343.893C77.3301 344.186 77.7148 344.332 78.1445 344.332C78.5977 344.332 78.9453 344.256 79.1875 344.104C79.4297 343.951 79.6074 343.801 79.7207 343.652C79.8457 343.488 79.9668 343.457 80.084 343.559L80.4297 343.857C80.5195 343.936 80.5195 344.043 80.4297 344.18C80.3555 344.293 80.1426 344.475 79.791 344.725C79.4434 344.975 78.8945 345.1 78.1445 345.1C77.168 345.1 76.4473 344.812 75.9824 344.238C75.5215 343.664 75.291 342.893 75.291 341.924ZM76.3574 341.555H79.668C79.6523 341.008 79.5117 340.529 79.2461 340.119C78.9805 339.705 78.5898 339.498 78.0742 339.498C77.6211 339.498 77.2363 339.65 76.9199 339.955C76.6035 340.256 76.416 340.789 76.3574 341.555ZM81.8184 344.426C81.6973 344.312 81.6719 344.207 81.7422 344.109L82.0059 343.74C82.0918 343.623 82.2188 343.629 82.3867 343.758C82.6172 343.934 82.873 344.074 83.1543 344.18C83.4395 344.285 83.7637 344.338 84.127 344.338C84.3418 344.338 84.5332 344.312 84.7012 344.262C84.8691 344.207 85.0156 344.107 85.1406 343.963C85.2695 343.818 85.334 343.625 85.334 343.383C85.334 343.242 85.3027 343.109 85.2402 342.984C85.1816 342.859 85.0879 342.76 84.959 342.686C84.834 342.607 84.7109 342.547 84.5898 342.504C84.3906 342.43 84.1914 342.369 83.9922 342.322C83.7969 342.271 83.5391 342.195 83.2188 342.094C83.0039 342.027 82.8008 341.934 82.6094 341.812C82.418 341.688 82.25 341.52 82.1055 341.309C81.9648 341.098 81.8945 340.807 81.8945 340.436C81.8945 340.057 82.0098 339.73 82.2402 339.457C82.4707 339.184 82.7598 338.998 83.1074 338.9C83.4551 338.799 83.793 338.748 84.1211 338.748C84.6055 338.748 84.9941 338.805 85.2871 338.918C85.584 339.027 85.8398 339.158 86.0547 339.311C86.1797 339.4 86.1973 339.504 86.1074 339.621L85.8438 339.973C85.7617 340.086 85.6348 340.082 85.4629 339.961C85.3184 339.859 85.1133 339.764 84.8477 339.674C84.582 339.584 84.3496 339.539 84.1504 339.539C83.9043 339.539 83.6934 339.566 83.5176 339.621C83.3418 339.676 83.1992 339.77 83.0898 339.902C82.9805 340.035 82.9258 340.191 82.9258 340.371C82.9258 340.508 82.9473 340.631 82.9902 340.74C83.0332 340.846 83.1133 340.943 83.2305 341.033C83.3477 341.123 83.5117 341.195 83.7227 341.25C84.0508 341.336 84.3496 341.414 84.6191 341.484C84.8926 341.555 85.1387 341.641 85.3574 341.742C85.6426 341.875 85.8613 342.021 86.0137 342.182C86.1699 342.342 86.2773 342.516 86.3359 342.703C86.3945 342.887 86.4238 343.092 86.4238 343.318C86.4238 343.736 86.2988 344.09 86.0488 344.379C85.8027 344.668 85.5273 344.861 85.2227 344.959C84.918 345.053 84.5508 345.1 84.1211 345.1C83.5391 345.1 83.0391 345.018 82.6211 344.854C82.207 344.686 81.9395 344.543 81.8184 344.426ZM87.3496 344.426C87.2285 344.312 87.2031 344.207 87.2734 344.109L87.5371 343.74C87.623 343.623 87.75 343.629 87.918 343.758C88.1484 343.934 88.4043 344.074 88.6855 344.18C88.9707 344.285 89.2949 344.338 89.6582 344.338C89.873 344.338 90.0645 344.312 90.2324 344.262C90.4004 344.207 90.5469 344.107 90.6719 343.963C90.8008 343.818 90.8652 343.625 90.8652 343.383C90.8652 343.242 90.834 343.109 90.7715 342.984C90.7129 342.859 90.6191 342.76 90.4902 342.686C90.3652 342.607 90.2422 342.547 90.1211 342.504C89.9219 342.43 89.7227 342.369 89.5234 342.322C89.3281 342.271 89.0703 342.195 88.75 342.094C88.5352 342.027 88.332 341.934 88.1406 341.812C87.9492 341.688 87.7812 341.52 87.6367 341.309C87.4961 341.098 87.4258 340.807 87.4258 340.436C87.4258 340.057 87.541 339.73 87.7715 339.457C88.002 339.184 88.291 338.998 88.6387 338.9C88.9863 338.799 89.3242 338.748 89.6523 338.748C90.1367 338.748 90.5254 338.805 90.8184 338.918C91.1152 339.027 91.3711 339.158 91.5859 339.311C91.7109 339.4 91.7285 339.504 91.6387 339.621L91.375 339.973C91.293 340.086 91.166 340.082 90.9941 339.961C90.8496 339.859 90.6445 339.764 90.3789 339.674C90.1133 339.584 89.8809 339.539 89.6816 339.539C89.4355 339.539 89.2246 339.566 89.0488 339.621C88.873 339.676 88.7305 339.77 88.6211 339.902C88.5117 340.035 88.457 340.191 88.457 340.371C88.457 340.508 88.4785 340.631 88.5215 340.74C88.5645 340.846 88.6445 340.943 88.7617 341.033C88.8789 341.123 89.043 341.195 89.2539 341.25C89.582 341.336 89.8809 341.414 90.1504 341.484C90.4238 341.555 90.6699 341.641 90.8887 341.742C91.1738 341.875 91.3926 342.021 91.5449 342.182C91.7012 342.342 91.8086 342.516 91.8672 342.703C91.9258 342.887 91.9551 343.092 91.9551 343.318C91.9551 343.736 91.8301 344.09 91.5801 344.379C91.334 344.668 91.0586 344.861 90.7539 344.959C90.4492 345.053 90.082 345.1 89.6523 345.1C89.0703 345.1 88.5703 345.018 88.1523 344.854C87.7383 344.686 87.4707 344.543 87.3496 344.426ZM96.7832 341.924C96.7832 341.084 96.9863 340.346 97.3926 339.709C97.7988 339.068 98.3926 338.748 99.1738 338.748C99.623 338.748 99.9824 338.822 100.252 338.971C100.521 339.119 100.764 339.322 100.979 339.58H100.99C100.982 339.463 100.979 339.344 100.979 339.223V336.615C100.979 336.439 101.066 336.352 101.242 336.352H101.746C101.922 336.352 102.01 336.439 102.01 336.615V344.736C102.01 344.912 101.922 345 101.746 345H101.254C101.113 345 101.037 344.912 101.025 344.736L100.99 344.268H100.979C100.764 344.525 100.521 344.729 100.252 344.877C99.9824 345.025 99.623 345.1 99.1738 345.1C98.3926 345.1 97.7988 344.781 97.3926 344.145C96.9863 343.504 96.7832 342.764 96.7832 341.924ZM97.873 341.924C97.873 342.643 97.9961 343.225 98.2422 343.67C98.4922 344.115 98.9141 344.338 99.5078 344.338C99.9297 344.338 100.279 344.195 100.557 343.91C100.838 343.621 100.979 343.184 100.979 342.598V341.25C100.979 340.664 100.838 340.229 100.557 339.943C100.279 339.654 99.9297 339.51 99.5078 339.51C98.9141 339.51 98.4922 339.732 98.2422 340.178C97.9961 340.623 97.873 341.205 97.873 341.924ZM103.346 341.924C103.346 340.955 103.588 340.184 104.072 339.609C104.557 339.035 105.25 338.748 106.152 338.748C106.902 338.748 107.523 339.012 108.016 339.539C108.512 340.062 108.76 340.9 108.76 342.053C108.76 342.229 108.68 342.316 108.52 342.316H104.436C104.502 343.07 104.705 343.596 105.045 343.893C105.385 344.186 105.77 344.332 106.199 344.332C106.652 344.332 107 344.256 107.242 344.104C107.484 343.951 107.662 343.801 107.775 343.652C107.9 343.488 108.021 343.457 108.139 343.559L108.484 343.857C108.574 343.936 108.574 344.043 108.484 344.18C108.41 344.293 108.197 344.475 107.846 344.725C107.498 344.975 106.949 345.1 106.199 345.1C105.223 345.1 104.502 344.812 104.037 344.238C103.576 343.664 103.346 342.893 103.346 341.924ZM104.412 341.555H107.723C107.707 341.008 107.566 340.529 107.301 340.119C107.035 339.705 106.645 339.498 106.129 339.498C105.676 339.498 105.291 339.65 104.975 339.955C104.658 340.256 104.471 340.789 104.412 341.555ZM110.377 345C110.201 345 110.113 344.912 110.113 344.736V339.111C110.113 338.936 110.201 338.848 110.377 338.848H110.869C111.045 338.848 111.133 338.936 111.133 339.111V339.58H111.156C111.41 339.299 111.684 339.09 111.977 338.953C112.27 338.816 112.635 338.748 113.072 338.748C113.783 338.748 114.293 338.949 114.602 339.352C114.914 339.75 115.07 340.297 115.07 340.992V344.736C115.07 344.912 114.982 345 114.807 345H114.303C114.127 345 114.039 344.912 114.039 344.736V341.273C114.039 340.508 113.912 340.023 113.658 339.82C113.404 339.613 113.082 339.51 112.691 339.51C112.184 339.51 111.799 339.662 111.537 339.967C111.275 340.268 111.145 340.785 111.145 341.52V344.736C111.145 344.912 111.057 345 110.881 345H110.377ZM116.986 345C116.811 345 116.723 344.912 116.723 344.736V339.111C116.723 338.936 116.811 338.848 116.986 338.848H117.49C117.666 338.848 117.754 338.936 117.754 339.111V344.736C117.754 344.912 117.666 345 117.49 345H116.986ZM116.986 337.734C116.811 337.734 116.723 337.646 116.723 337.471V336.967C116.723 336.791 116.811 336.703 116.986 336.703H117.49C117.666 336.703 117.754 336.791 117.754 336.967V337.471C117.754 337.646 117.666 337.734 117.49 337.734H116.986ZM119.084 341.924C119.084 340.955 119.326 340.184 119.811 339.609C120.295 339.035 120.988 338.748 121.891 338.748C122.641 338.748 123.262 339.012 123.754 339.539C124.25 340.062 124.498 340.9 124.498 342.053C124.498 342.229 124.418 342.316 124.258 342.316H120.174C120.24 343.07 120.443 343.596 120.783 343.893C121.123 344.186 121.508 344.332 121.938 344.332C122.391 344.332 122.738 344.256 122.98 344.104C123.223 343.951 123.4 343.801 123.514 343.652C123.639 343.488 123.76 343.457 123.877 343.559L124.223 343.857C124.312 343.936 124.312 344.043 124.223 344.18C124.148 344.293 123.936 344.475 123.584 344.725C123.236 344.975 122.688 345.1 121.938 345.1C120.961 345.1 120.24 344.812 119.775 344.238C119.314 343.664 119.084 342.893 119.084 341.924ZM120.15 341.555H123.461C123.445 341.008 123.305 340.529 123.039 340.119C122.773 339.705 122.383 339.498 121.867 339.498C121.414 339.498 121.029 339.65 120.713 339.955C120.396 340.256 120.209 340.789 120.15 341.555ZM125.518 341.924C125.518 341.084 125.721 340.346 126.127 339.709C126.533 339.068 127.127 338.748 127.908 338.748C128.357 338.748 128.717 338.822 128.986 338.971C129.256 339.119 129.498 339.322 129.713 339.58H129.725C129.717 339.463 129.713 339.344 129.713 339.223V336.615C129.713 336.439 129.801 336.352 129.977 336.352H130.48C130.656 336.352 130.744 336.439 130.744 336.615V344.736C130.744 344.912 130.656 345 130.48 345H129.988C129.848 345 129.771 344.912 129.76 344.736L129.725 344.268H129.713C129.498 344.525 129.256 344.729 128.986 344.877C128.717 345.025 128.357 345.1 127.908 345.1C127.127 345.1 126.533 344.781 126.127 344.145C125.721 343.504 125.518 342.764 125.518 341.924ZM126.607 341.924C126.607 342.643 126.73 343.225 126.977 343.67C127.227 344.115 127.648 344.338 128.242 344.338C128.664 344.338 129.014 344.195 129.291 343.91C129.572 343.621 129.713 343.184 129.713 342.598V341.25C129.713 340.664 129.572 340.229 129.291 339.943C129.014 339.654 128.664 339.51 128.242 339.51C127.648 339.51 127.227 339.732 126.977 340.178C126.73 340.623 126.607 341.205 126.607 341.924ZM136.076 341.924C136.076 341.084 136.279 340.346 136.686 339.709C137.092 339.068 137.686 338.748 138.467 338.748C138.916 338.748 139.275 338.822 139.545 338.971C139.814 339.119 140.057 339.322 140.271 339.58H140.283C140.275 339.463 140.271 339.344 140.271 339.223V336.615C140.271 336.439 140.359 336.352 140.535 336.352H141.039C141.215 336.352 141.303 336.439 141.303 336.615V344.736C141.303 344.912 141.215 345 141.039 345H140.547C140.406 345 140.33 344.912 140.318 344.736L140.283 344.268H140.271C140.057 344.525 139.814 344.729 139.545 344.877C139.275 345.025 138.916 345.1 138.467 345.1C137.686 345.1 137.092 344.781 136.686 344.145C136.279 343.504 136.076 342.764 136.076 341.924ZM137.166 341.924C137.166 342.643 137.289 343.225 137.535 343.67C137.785 344.115 138.207 344.338 138.801 344.338C139.223 344.338 139.572 344.195 139.85 343.91C140.131 343.621 140.271 343.184 140.271 342.598V341.25C140.271 340.664 140.131 340.229 139.85 339.943C139.572 339.654 139.223 339.51 138.801 339.51C138.207 339.51 137.785 339.732 137.535 340.178C137.289 340.623 137.166 341.205 137.166 341.924ZM142.961 342.855V339.111C142.961 338.936 143.049 338.848 143.225 338.848H143.729C143.904 338.848 143.992 338.936 143.992 339.111V342.574C143.992 343.34 144.119 343.826 144.373 344.033C144.627 344.236 144.941 344.338 145.316 344.338C145.809 344.338 146.186 344.188 146.447 343.887C146.709 343.582 146.84 343.062 146.84 342.328V339.111C146.84 338.936 146.928 338.848 147.104 338.848H147.607C147.783 338.848 147.871 338.936 147.871 339.111V344.736C147.871 344.912 147.783 345 147.607 345H147.115C146.939 345 146.852 344.912 146.852 344.736V344.268H146.828C146.574 344.549 146.301 344.758 146.008 344.895C145.715 345.031 145.357 345.1 144.936 345.1C144.252 345.1 143.752 344.9 143.436 344.502C143.119 344.1 142.961 343.551 142.961 342.855ZM149.201 341.924C149.201 340.955 149.443 340.184 149.928 339.609C150.412 339.035 151.105 338.748 152.008 338.748C152.758 338.748 153.379 339.012 153.871 339.539C154.367 340.062 154.615 340.9 154.615 342.053C154.615 342.229 154.535 342.316 154.375 342.316H150.291C150.357 343.07 150.561 343.596 150.9 343.893C151.24 344.186 151.625 344.332 152.055 344.332C152.508 344.332 152.855 344.256 153.098 344.104C153.34 343.951 153.518 343.801 153.631 343.652C153.756 343.488 153.877 343.457 153.994 343.559L154.34 343.857C154.43 343.936 154.43 344.043 154.34 344.18C154.266 344.293 154.053 344.475 153.701 344.725C153.354 344.975 152.805 345.1 152.055 345.1C151.078 345.1 150.357 344.812 149.893 344.238C149.432 343.664 149.201 342.893 149.201 341.924ZM150.268 341.555H153.578C153.562 341.008 153.422 340.529 153.156 340.119C152.891 339.705 152.5 339.498 151.984 339.498C151.531 339.498 151.146 339.65 150.83 339.955C150.514 340.256 150.326 340.789 150.268 341.555ZM159.666 339.621C159.49 339.621 159.402 339.553 159.402 339.416V339.053C159.402 338.916 159.49 338.848 159.666 338.848H160.357V338.32C160.357 338.242 160.377 338.168 160.416 338.098L160.826 337.354C160.9 337.217 160.961 337.148 161.008 337.148H161.213C161.33 337.148 161.389 337.217 161.389 337.354V338.848H162.637C162.812 338.848 162.9 338.916 162.9 339.053V339.416C162.9 339.553 162.812 339.621 162.637 339.621H161.389V343.354C161.389 343.764 161.449 344.031 161.57 344.156C161.695 344.277 161.844 344.338 162.016 344.338C162.148 344.338 162.307 344.299 162.49 344.221C162.678 344.143 162.807 344.076 162.877 344.021C162.947 343.967 163.002 343.984 163.041 344.074L163.234 344.525C163.266 344.604 163.242 344.666 163.164 344.713C163.012 344.803 162.789 344.891 162.496 344.977C162.203 345.059 161.91 345.1 161.617 345.1C161.211 345.1 160.898 344.953 160.68 344.66C160.465 344.367 160.357 343.953 160.357 343.418V339.621H159.666ZM164.072 341.924C164.072 341.006 164.314 340.248 164.799 339.65C165.287 339.049 166 338.748 166.938 338.748C167.875 338.748 168.586 339.049 169.07 339.65C169.559 340.248 169.803 341.006 169.803 341.924C169.803 342.842 169.559 343.602 169.07 344.203C168.586 344.801 167.875 345.1 166.938 345.1C166 345.1 165.287 344.801 164.799 344.203C164.314 343.602 164.072 342.842 164.072 341.924ZM165.162 341.924C165.162 342.744 165.324 343.352 165.648 343.746C165.973 344.141 166.402 344.338 166.938 344.338C167.473 344.338 167.902 344.141 168.227 343.746C168.551 343.352 168.713 342.744 168.713 341.924C168.713 341.104 168.551 340.496 168.227 340.102C167.902 339.707 167.473 339.51 166.938 339.51C166.402 339.51 165.973 339.707 165.648 340.102C165.324 340.496 165.162 341.104 165.162 341.924ZM175.393 345C175.217 345 175.129 344.912 175.129 344.736V339.111C175.129 338.936 175.217 338.848 175.393 338.848H175.896C176.072 338.848 176.16 338.936 176.16 339.111V344.736C176.16 344.912 176.072 345 175.896 345H175.393ZM175.393 337.734C175.217 337.734 175.129 337.646 175.129 337.471V336.967C175.129 336.791 175.217 336.703 175.393 336.703H175.896C176.072 336.703 176.16 336.791 176.16 336.967V337.471C176.16 337.646 176.072 337.734 175.896 337.734H175.393ZM178.088 345C177.912 345 177.824 344.912 177.824 344.736V339.111C177.824 338.936 177.912 338.848 178.088 338.848H178.58C178.756 338.848 178.844 338.936 178.844 339.111V339.58H178.867C179.121 339.299 179.395 339.09 179.688 338.953C179.98 338.816 180.346 338.748 180.783 338.748C181.494 338.748 182.004 338.949 182.312 339.352C182.625 339.75 182.781 340.297 182.781 340.992V344.736C182.781 344.912 182.693 345 182.518 345H182.014C181.838 345 181.75 344.912 181.75 344.736V341.273C181.75 340.508 181.623 340.023 181.369 339.82C181.115 339.613 180.793 339.51 180.402 339.51C179.895 339.51 179.51 339.662 179.248 339.967C178.986 340.268 178.855 340.785 178.855 341.52V344.736C178.855 344.912 178.768 345 178.592 345H178.088ZM183.965 339.135C183.898 338.943 183.951 338.848 184.123 338.848H184.762C184.887 338.848 184.975 338.924 185.025 339.076L186.268 342.943C186.369 343.26 186.438 343.479 186.473 343.6C186.512 343.717 186.547 343.863 186.578 344.039H186.602C186.633 343.863 186.666 343.717 186.701 343.6C186.74 343.479 186.811 343.26 186.912 342.943L188.154 339.076C188.205 338.924 188.293 338.848 188.418 338.848H189.057C189.229 338.848 189.281 338.943 189.215 339.135L187.293 344.643C187.211 344.881 187.105 345 186.977 345H186.203C186.074 345 185.969 344.881 185.887 344.643L183.965 339.135ZM189.877 343.359C189.877 342.664 190.201 342.154 190.85 341.83C191.502 341.506 192.475 341.316 193.768 341.262V340.863C193.768 340.496 193.684 340.18 193.516 339.914C193.352 339.645 193.023 339.51 192.531 339.51C192.219 339.51 191.969 339.541 191.781 339.604C191.594 339.662 191.422 339.742 191.266 339.844C191.113 339.941 190.967 340.068 190.826 340.225C190.721 340.342 190.621 340.348 190.527 340.242L190.223 339.891C190.137 339.793 190.166 339.676 190.311 339.539C190.518 339.344 190.719 339.197 190.914 339.1C191.109 339.002 191.352 338.92 191.641 338.854C191.934 338.783 192.23 338.748 192.531 338.748C193.348 338.748 193.93 338.959 194.277 339.381C194.625 339.799 194.799 340.373 194.799 341.104V344.736C194.799 344.912 194.711 345 194.535 345H194.008C193.855 345 193.779 344.912 193.779 344.736V344.449H193.768C193.459 344.691 193.156 344.861 192.859 344.959C192.566 345.053 192.238 345.1 191.875 345.1C191.234 345.1 190.74 344.947 190.393 344.643C190.049 344.334 189.877 343.906 189.877 343.359ZM190.943 343.383C190.943 343.625 190.994 343.82 191.096 343.969C191.197 344.113 191.338 344.207 191.518 344.25C191.697 344.289 191.885 344.309 192.08 344.309C192.381 344.309 192.666 344.279 192.936 344.221C193.205 344.162 193.482 344.008 193.768 343.758V342.029C192.979 342.088 192.416 342.16 192.08 342.246C191.744 342.328 191.471 342.473 191.26 342.68C191.049 342.883 190.943 343.117 190.943 343.383ZM196.732 345C196.557 345 196.469 344.912 196.469 344.736V337.424C196.469 337.346 196.488 337.271 196.527 337.201L196.938 336.457C197.012 336.32 197.072 336.252 197.119 336.252H197.324C197.441 336.252 197.5 336.32 197.5 336.457V344.736C197.5 344.912 197.412 345 197.236 345H196.732ZM199.428 345C199.252 345 199.164 344.912 199.164 344.736V339.111C199.164 338.936 199.252 338.848 199.428 338.848H199.932C200.107 338.848 200.195 338.936 200.195 339.111V344.736C200.195 344.912 200.107 345 199.932 345H199.428ZM199.428 337.734C199.252 337.734 199.164 337.646 199.164 337.471V336.967C199.164 336.791 199.252 336.703 199.428 336.703H199.932C200.107 336.703 200.195 336.791 200.195 336.967V337.471C200.195 337.646 200.107 337.734 199.932 337.734H199.428ZM201.525 341.924C201.525 341.084 201.729 340.346 202.135 339.709C202.541 339.068 203.135 338.748 203.916 338.748C204.365 338.748 204.725 338.822 204.994 338.971C205.264 339.119 205.506 339.322 205.721 339.58H205.732C205.725 339.463 205.721 339.344 205.721 339.223V336.615C205.721 336.439 205.809 336.352 205.984 336.352H206.488C206.664 336.352 206.752 336.439 206.752 336.615V344.736C206.752 344.912 206.664 345 206.488 345H205.996C205.855 345 205.779 344.912 205.768 344.736L205.732 344.268H205.721C205.506 344.525 205.264 344.729 204.994 344.877C204.725 345.025 204.365 345.1 203.916 345.1C203.135 345.1 202.541 344.781 202.135 344.145C201.729 343.504 201.525 342.764 201.525 341.924ZM202.615 341.924C202.615 342.643 202.738 343.225 202.984 343.67C203.234 344.115 203.656 344.338 204.25 344.338C204.672 344.338 205.021 344.195 205.299 343.91C205.58 343.621 205.721 343.184 205.721 342.598V341.25C205.721 340.664 205.58 340.229 205.299 339.943C205.021 339.654 204.672 339.51 204.25 339.51C203.656 339.51 203.234 339.732 202.984 340.178C202.738 340.623 202.615 341.205 202.615 341.924ZM212.084 341.924C212.084 341.006 212.311 340.248 212.764 339.65C213.221 339.049 213.918 338.748 214.855 338.748C215.488 338.748 215.971 338.861 216.303 339.088C216.639 339.311 216.881 339.539 217.029 339.773C217.111 339.902 217.094 340.006 216.977 340.084L216.607 340.324C216.49 340.406 216.373 340.354 216.256 340.166C216.143 339.986 215.982 339.832 215.775 339.703C215.572 339.574 215.266 339.51 214.855 339.51C214.32 339.51 213.906 339.707 213.613 340.102C213.32 340.496 213.174 341.104 213.174 341.924C213.174 342.744 213.32 343.352 213.613 343.746C213.906 344.141 214.32 344.338 214.855 344.338C215.289 344.338 215.621 344.256 215.852 344.092C216.082 343.924 216.25 343.742 216.355 343.547C216.457 343.363 216.572 343.311 216.701 343.389L217.094 343.623C217.211 343.693 217.229 343.799 217.146 343.939C217.049 344.107 216.826 344.344 216.479 344.648C216.135 344.949 215.594 345.1 214.855 345.1C213.918 345.1 213.221 344.801 212.764 344.203C212.311 343.602 212.084 342.842 212.084 341.924ZM218.693 345C218.518 345 218.43 344.912 218.43 344.736V339.111C218.43 338.936 218.518 338.848 218.693 338.848H219.186C219.361 338.848 219.449 338.936 219.449 339.111V339.814H219.473C219.66 339.463 219.881 339.197 220.135 339.018C220.389 338.838 220.705 338.748 221.084 338.748C221.334 338.748 221.51 338.77 221.611 338.812C221.701 338.848 221.734 338.906 221.711 338.988L221.576 339.469C221.557 339.539 221.506 339.566 221.424 339.551C221.287 339.523 221.158 339.51 221.037 339.51C220.58 339.51 220.203 339.717 219.906 340.131C219.609 340.541 219.461 341.102 219.461 341.812V344.736C219.461 344.912 219.373 345 219.197 345H218.693ZM222.326 341.924C222.326 340.955 222.568 340.184 223.053 339.609C223.537 339.035 224.23 338.748 225.133 338.748C225.883 338.748 226.504 339.012 226.996 339.539C227.492 340.062 227.74 340.9 227.74 342.053C227.74 342.229 227.66 342.316 227.5 342.316H223.416C223.482 343.07 223.686 343.596 224.025 343.893C224.365 344.186 224.75 344.332 225.18 344.332C225.633 344.332 225.98 344.256 226.223 344.104C226.465 343.951 226.643 343.801 226.756 343.652C226.881 343.488 227.002 343.457 227.119 343.559L227.465 343.857C227.555 343.936 227.555 344.043 227.465 344.18C227.391 344.293 227.178 344.475 226.826 344.725C226.479 344.975 225.93 345.1 225.18 345.1C224.203 345.1 223.482 344.812 223.018 344.238C222.557 343.664 222.326 342.893 222.326 341.924ZM223.393 341.555H226.703C226.688 341.008 226.547 340.529 226.281 340.119C226.016 339.705 225.625 339.498 225.109 339.498C224.656 339.498 224.271 339.65 223.955 339.955C223.639 340.256 223.451 340.789 223.393 341.555ZM228.76 341.924C228.76 341.084 228.963 340.346 229.369 339.709C229.775 339.068 230.369 338.748 231.15 338.748C231.6 338.748 231.959 338.822 232.229 338.971C232.498 339.119 232.74 339.322 232.955 339.58H232.967C232.959 339.463 232.955 339.344 232.955 339.223V336.615C232.955 336.439 233.043 336.352 233.219 336.352H233.723C233.898 336.352 233.986 336.439 233.986 336.615V344.736C233.986 344.912 233.898 345 233.723 345H233.23C233.09 345 233.014 344.912 233.002 344.736L232.967 344.268H232.955C232.74 344.525 232.498 344.729 232.229 344.877C231.959 345.025 231.6 345.1 231.15 345.1C230.369 345.1 229.775 344.781 229.369 344.145C228.963 343.504 228.76 342.764 228.76 341.924ZM229.85 341.924C229.85 342.643 229.973 343.225 230.219 343.67C230.469 344.115 230.891 344.338 231.484 344.338C231.906 344.338 232.256 344.195 232.533 343.91C232.814 343.621 232.955 343.184 232.955 342.598V341.25C232.955 340.664 232.814 340.229 232.533 339.943C232.256 339.654 231.906 339.51 231.484 339.51C230.891 339.51 230.469 339.732 230.219 340.178C229.973 340.623 229.85 341.205 229.85 341.924ZM235.322 341.924C235.322 340.955 235.564 340.184 236.049 339.609C236.533 339.035 237.227 338.748 238.129 338.748C238.879 338.748 239.5 339.012 239.992 339.539C240.488 340.062 240.736 340.9 240.736 342.053C240.736 342.229 240.656 342.316 240.496 342.316H236.412C236.479 343.07 236.682 343.596 237.021 343.893C237.361 344.186 237.746 344.332 238.176 344.332C238.629 344.332 238.977 344.256 239.219 344.104C239.461 343.951 239.639 343.801 239.752 343.652C239.877 343.488 239.998 343.457 240.115 343.559L240.461 343.857C240.551 343.936 240.551 344.043 240.461 344.18C240.387 344.293 240.174 344.475 239.822 344.725C239.475 344.975 238.926 345.1 238.176 345.1C237.199 345.1 236.479 344.812 236.014 344.238C235.553 343.664 235.322 342.893 235.322 341.924ZM236.389 341.555H239.699C239.684 341.008 239.543 340.529 239.277 340.119C239.012 339.705 238.621 339.498 238.105 339.498C237.652 339.498 237.268 339.65 236.951 339.955C236.635 340.256 236.447 340.789 236.389 341.555ZM242.354 345C242.178 345 242.09 344.912 242.09 344.736V339.111C242.09 338.936 242.178 338.848 242.354 338.848H242.846C243.021 338.848 243.109 338.936 243.109 339.111V339.58H243.133C243.387 339.299 243.66 339.09 243.953 338.953C244.246 338.816 244.611 338.748 245.049 338.748C245.76 338.748 246.27 338.949 246.578 339.352C246.891 339.75 247.047 340.297 247.047 340.992V344.736C247.047 344.912 246.959 345 246.783 345H246.279C246.104 345 246.016 344.912 246.016 344.736V341.273C246.016 340.508 245.889 340.023 245.635 339.82C245.381 339.613 245.059 339.51 244.668 339.51C244.16 339.51 243.775 339.662 243.514 339.967C243.252 340.268 243.121 340.785 243.121 341.52V344.736C243.121 344.912 243.033 345 242.857 345H242.354ZM248.4 339.621C248.225 339.621 248.137 339.553 248.137 339.416V339.053C248.137 338.916 248.225 338.848 248.4 338.848H249.092V338.32C249.092 338.242 249.111 338.168 249.15 338.098L249.561 337.354C249.635 337.217 249.695 337.148 249.742 337.148H249.947C250.064 337.148 250.123 337.217 250.123 337.354V338.848H251.371C251.547 338.848 251.635 338.916 251.635 339.053V339.416C251.635 339.553 251.547 339.621 251.371 339.621H250.123V343.354C250.123 343.764 250.184 344.031 250.305 344.156C250.43 344.277 250.578 344.338 250.75 344.338C250.883 344.338 251.041 344.299 251.225 344.221C251.412 344.143 251.541 344.076 251.611 344.021C251.682 343.967 251.736 343.984 251.775 344.074L251.969 344.525C252 344.604 251.977 344.666 251.898 344.713C251.746 344.803 251.523 344.891 251.23 344.977C250.938 345.059 250.645 345.1 250.352 345.1C249.945 345.1 249.633 344.953 249.414 344.66C249.199 344.367 249.092 343.953 249.092 343.418V339.621H248.4ZM253.404 345C253.229 345 253.141 344.912 253.141 344.736V339.111C253.141 338.936 253.229 338.848 253.404 338.848H253.908C254.084 338.848 254.172 338.936 254.172 339.111V344.736C254.172 344.912 254.084 345 253.908 345H253.404ZM253.404 337.734C253.229 337.734 253.141 337.646 253.141 337.471V336.967C253.141 336.791 253.229 336.703 253.404 336.703H253.908C254.084 336.703 254.172 336.791 254.172 336.967V337.471C254.172 337.646 254.084 337.734 253.908 337.734H253.404ZM255.502 343.359C255.502 342.664 255.826 342.154 256.475 341.83C257.127 341.506 258.1 341.316 259.393 341.262V340.863C259.393 340.496 259.309 340.18 259.141 339.914C258.977 339.645 258.648 339.51 258.156 339.51C257.844 339.51 257.594 339.541 257.406 339.604C257.219 339.662 257.047 339.742 256.891 339.844C256.738 339.941 256.592 340.068 256.451 340.225C256.346 340.342 256.246 340.348 256.152 340.242L255.848 339.891C255.762 339.793 255.791 339.676 255.936 339.539C256.143 339.344 256.344 339.197 256.539 339.1C256.734 339.002 256.977 338.92 257.266 338.854C257.559 338.783 257.855 338.748 258.156 338.748C258.973 338.748 259.555 338.959 259.902 339.381C260.25 339.799 260.424 340.373 260.424 341.104V344.736C260.424 344.912 260.336 345 260.16 345H259.633C259.48 345 259.404 344.912 259.404 344.736V344.449H259.393C259.084 344.691 258.781 344.861 258.484 344.959C258.191 345.053 257.863 345.1 257.5 345.1C256.859 345.1 256.365 344.947 256.018 344.643C255.674 344.334 255.502 343.906 255.502 343.359ZM256.568 343.383C256.568 343.625 256.619 343.82 256.721 343.969C256.822 344.113 256.963 344.207 257.143 344.25C257.322 344.289 257.51 344.309 257.705 344.309C258.006 344.309 258.291 344.279 258.561 344.221C258.83 344.162 259.107 344.008 259.393 343.758V342.029C258.604 342.088 258.041 342.16 257.705 342.246C257.369 342.328 257.096 342.473 256.885 342.68C256.674 342.883 256.568 343.117 256.568 343.383ZM262.357 345C262.182 345 262.094 344.912 262.094 344.736V337.424C262.094 337.346 262.113 337.271 262.152 337.201L262.562 336.457C262.637 336.32 262.697 336.252 262.744 336.252H262.949C263.066 336.252 263.125 336.32 263.125 336.457V344.736C263.125 344.912 263.037 345 262.861 345H262.357ZM264.549 344.426C264.428 344.312 264.402 344.207 264.473 344.109L264.736 343.74C264.822 343.623 264.949 343.629 265.117 343.758C265.348 343.934 265.604 344.074 265.885 344.18C266.17 344.285 266.494 344.338 266.857 344.338C267.072 344.338 267.264 344.312 267.432 344.262C267.6 344.207 267.746 344.107 267.871 343.963C268 343.818 268.064 343.625 268.064 343.383C268.064 343.242 268.033 343.109 267.971 342.984C267.912 342.859 267.818 342.76 267.689 342.686C267.564 342.607 267.441 342.547 267.32 342.504C267.121 342.43 266.922 342.369 266.723 342.322C266.527 342.271 266.27 342.195 265.949 342.094C265.734 342.027 265.531 341.934 265.34 341.812C265.148 341.688 264.98 341.52 264.836 341.309C264.695 341.098 264.625 340.807 264.625 340.436C264.625 340.057 264.74 339.73 264.971 339.457C265.201 339.184 265.49 338.998 265.838 338.9C266.186 338.799 266.523 338.748 266.852 338.748C267.336 338.748 267.725 338.805 268.018 338.918C268.314 339.027 268.57 339.158 268.785 339.311C268.91 339.4 268.928 339.504 268.838 339.621L268.574 339.973C268.492 340.086 268.365 340.082 268.193 339.961C268.049 339.859 267.844 339.764 267.578 339.674C267.312 339.584 267.08 339.539 266.881 339.539C266.635 339.539 266.424 339.566 266.248 339.621C266.072 339.676 265.93 339.77 265.82 339.902C265.711 340.035 265.656 340.191 265.656 340.371C265.656 340.508 265.678 340.631 265.721 340.74C265.764 340.846 265.844 340.943 265.961 341.033C266.078 341.123 266.242 341.195 266.453 341.25C266.781 341.336 267.08 341.414 267.35 341.484C267.623 341.555 267.869 341.641 268.088 341.742C268.373 341.875 268.592 342.021 268.744 342.182C268.9 342.342 269.008 342.516 269.066 342.703C269.125 342.887 269.154 343.092 269.154 343.318C269.154 343.736 269.029 344.09 268.779 344.379C268.533 344.668 268.258 344.861 267.953 344.959C267.648 345.053 267.281 345.1 266.852 345.1C266.27 345.1 265.77 345.018 265.352 344.854C264.938 344.686 264.67 344.543 264.549 344.426ZM270.918 345C270.742 345 270.654 344.912 270.654 344.736V344.021C270.654 343.846 270.742 343.758 270.918 343.758H271.574C271.75 343.758 271.838 343.846 271.838 344.021V344.736C271.838 344.912 271.75 345 271.574 345H270.918Z" fill="black"/>
<defs>
<clipPath id="clip0_2_249">
<rect width="31.0681" height="31.0681" fill="white" transform="translate(151 95.9061) rotate(-19.8075)"/>
</clipPath>
<clipPath id="clip1_2_249">
<rect width="31.0681" height="31.0681" fill="white" transform="translate(245.378 102.638) rotate(34.4401)"/>
</clipPath>
</defs>
</svg>
