<svg width="47" height="24" viewBox="0 0 47 24" fill="none" xmlns="http://www.w3.org/2000/svg">
<path d="M30.0327 5C26.9677 5 24.2287 6.5902 24.2287 9.52822C24.2287 12.8976 29.0864 13.1303 29.0864 14.823C29.0864 15.5357 28.2705 16.1737 26.8768 16.1737C24.899 16.1737 23.4207 15.2822 23.4207 15.2822L22.7882 18.247C22.7882 18.247 24.4911 19 26.752 19C30.103 19 32.7399 17.3317 32.7399 14.3435C32.7399 10.7831 27.8619 10.5573 27.8619 8.98625C27.8619 8.42794 28.5317 7.81621 29.9214 7.81621C31.4893 7.81621 32.7686 8.46454 32.7686 8.46454L33.3876 5.60106C33.3876 5.60106 31.9957 5 30.0327 5ZM1.99081 5.21611L1.9166 5.64834C1.9166 5.64834 3.20605 5.88456 4.36741 6.35576C5.86277 6.8961 5.96929 7.21066 6.22113 8.18765L8.96544 18.7771H12.6442L18.3116 5.21611H14.6413L10.9996 14.4363L9.51363 6.62084C9.37735 5.72636 8.68705 5.21611 7.84208 5.21611H1.99081ZM19.7875 5.21611L16.9083 18.7771H20.4082L23.2773 5.21611H19.7875ZM39.308 5.21611C38.4641 5.21611 38.0169 5.6684 37.6888 6.45876L32.5611 18.7771H36.2314L36.9415 16.7241H41.4131L41.8449 18.7771H45.0834L42.2581 5.21611H39.308ZM39.7854 8.87988L40.8733 13.9686H37.9586L39.7854 8.87988Z" fill="#1434CB"/>
</svg>
